<?xml version="1.0" encoding="UTF-8" standalone="no"?>
<!-- Created with Inkscape (http://www.inkscape.org/) -->

<svg
   xmlns:dc="http://purl.org/dc/elements/1.1/"
   xmlns:cc="http://creativecommons.org/ns#"
   xmlns:rdf="http://www.w3.org/1999/02/22-rdf-syntax-ns#"
   xmlns:svg="http://www.w3.org/2000/svg"
   xmlns="http://www.w3.org/2000/svg"
   xmlns:sodipodi="http://sodipodi.sourceforge.net/DTD/sodipodi-0.dtd"
   xmlns:inkscape="http://www.inkscape.org/namespaces/inkscape"
   width="221.11656mm"
   height="113.61192mm"
   viewBox="0 0 783.48388 402.5619"
   id="svg2"
   version="1.1"
   inkscape:version="0.91 r13725"
   sodipodi:docname="arco-outline.svg">
  <defs
     id="defs4" />
  <sodipodi:namedview
     id="base"
     pagecolor="#ffffff"
     bordercolor="#666666"
     borderopacity="1.0"
     inkscape:pageopacity="0.0"
     inkscape:pageshadow="2"
     inkscape:zoom="0.98994949"
     inkscape:cx="201.50117"
     inkscape:cy="18.788531"
     inkscape:document-units="px"
     inkscape:current-layer="layer1"
     showgrid="false"
     inkscape:window-width="1920"
     inkscape:window-height="1043"
     inkscape:window-x="1920"
     inkscape:window-y="0"
     inkscape:window-maximized="1"
     fit-margin-top="0"
     fit-margin-left="0"
     fit-margin-right="0"
     fit-margin-bottom="0" />
  <metadata
     id="metadata7">
    <rdf:RDF>
      <cc:Work
         rdf:about="">
        <dc:format>image/svg+xml</dc:format>
        <dc:type
           rdf:resource="http://purl.org/dc/dcmitype/StillImage" />
        <dc:title></dc:title>
      </cc:Work>
    </rdf:RDF>
  </metadata>
  <g
     inkscape:label="Layer 1"
     inkscape:groupmode="layer"
     id="layer1"
     transform="translate(-36.921206,80.317108)">
    <path
       style="fill:#000000"
       d="M 37.661157,293.77628 C 40.652042,178.70635 84.262131,56.895202 157.04753,-39.692258 c 12.98719,-17.23422 32.84944,-40.62503 34.49649,-40.62485 2.82549,3.2e-4 34.28943,39.55519 50.51083,63.499641 46.76035,69.023079 78.09838,144.679117 93.82028,226.500207 6.65208,34.61923 10.64929,74.402 9.922,98.75 l -0.39205,13.125 -20.3398,0.3436 c -15.60752,0.26365 -20.46882,-0.0271 -20.89437,-1.25 -0.30501,-0.87649 -1.14571,-12.56235 -1.86823,-25.9686 -1.4587,-27.06641 -2.7303,-39.41714 -6.43483,-62.5 -2.76584,-17.23378 -9.50672,-48.22918 -11.1761,-51.38914 -0.66865,-1.26566 -6.54028,-3.44061 -15.80037,-5.8527 -53.93081,-14.04807 -109.12986,-13.23338 -162.3837,2.39661 l -8.897404,2.61139 -3.84806,17.05441 c -7.770187,34.43712 -12.187451,67.74023 -13.702107,103.30443 l -0.905024,21.25 -21.116939,0.34354 -21.11694,0.34353 0.739951,-28.46853 z m 38.801383,3.71896 c 1.348747,-34.30059 6.551379,-72.5205 14.334989,-105.3086 4.03249,-16.98669 2.537602,-15.77225 26.916311,-21.86673 41.7423,-10.43523 85.21842,-11.94221 128.28657,-4.44669 13.72722,2.38907 36.40524,8.12136 40.23564,10.17031 3.64483,1.94968 13.47471,48.89814 17.25031,82.38921 1.16279,10.31438 3.72547,49.12557 3.77607,57.1875 0.0175,2.7819 0.20807,2.8125 17.51765,2.8125 l 17.5,0 -0.0197,-13.4375 c -0.0544,-36.8999 -7.28261,-87.95529 -18.7369,-132.34449 -22.07501,-85.547958 -65.025,-169.4212178 -120.08353,-234.500578 -4.7629,-5.62976 -8.65982,-10.68176 -8.65982,-11.22668 0,-0.54491 -1.40625,-0.99075 -3.125,-0.99075 -1.71875,0 -3.125,0.48382 -3.125,1.07515 0,0.59133 -1.86915,3.05702 -4.15365,5.47931 -6.84951,7.26259 -22.21626,26.86095 -33.5749,42.82054 C 93.420102,55.932282 56.088481,152.90649 44.214545,252.18274 c -1.777642,14.8626 -4.416184,51.54127 -4.428602,61.5625 l -0.0058,4.6875 17.929581,0 17.929583,0 0.823291,-20.9375 z M 110.61342,133.8494 c -0.45834,-0.45832 -0.83334,-1.88394 -0.83334,-3.16802 0,-6.53405 24.32561,-60.585718 38.87983,-86.391238 8.28037,-14.6816 36.25191,-56.968839 39.80689,-60.179849 1.92981,-1.743091 3.24777,-2.102831 4.57953,-1.250001 3.04067,1.947171 22.02718,29.75547 34.10234,49.94745 13.4975,22.57042 29.76705,55.36254 39.34966,79.311298 7.15975,17.89356 7.899,20.63017 5.90568,21.86211 -0.61935,0.38278 -6.60705,-0.4318 -13.306,-1.81016 -41.63606,-8.56695 -91.49955,-8.56841 -133.86512,-0.004 -14.10245,2.8509 -13.51815,2.78366 -14.61947,1.68234 z m 41.59616,-9.89286 c 30.55999,-3.78371 76.52344,-2.06261 105.62154,3.955 5.30348,1.09677 9.95069,1.68614 10.32715,1.30969 2.58925,-2.58927 -29.94551,-71.245638 -46.72604,-98.603488 -12.80902,-20.8829598 -29.3978,-44.680729 -30.61942,-43.925719 -1.74435,1.07807 -31.77587,47.097979 -38.4029,58.848119 -9.35577,16.58835 -26.45489,52.41406 -33.12944,69.412068 -3.16271,8.05447 -5.75039,14.84282 -5.75039,15.08523 0,0.24241 5.1714,-0.58939 11.49201,-1.84843 6.3206,-1.25905 18.55497,-3.16366 27.18749,-4.23247 z m 238.27165,196.69405 c -0.27152,-0.87606 -0.80212,-11.15535 -1.17911,-22.84285 -2.05976,-63.85775 -15.62244,-132.14528 -38.66057,-194.65448 -3.27642,-8.889858 -4.0793,-12.401868 -2.98924,-13.075568 3.99346,-2.46809 37.85845,-15.05928 38.57516,-14.34246 0.95306,0.9532 11.67665,30.393228 13.01914,35.742128 0.79072,3.15052 1.63404,1.50099 6.7274,-13.158778 21.54092,-61.99948 60.02249,-114.053489 111.88571,-151.3478 19.56905,-14.07191 46.15139,-28.60587 48.27496,-26.39446 0.84333,0.87821 17.3954,36.51037 17.3954,37.44761 0,0.21104 -4.92187,2.86173 -10.9375,5.89041 -61.97247,31.2012106 -111.73032,93.74051 -130.31665,163.791468 -7.78373,29.33657 -7.8825,30.65659 -8.65835,115.72693 l -0.7125,78.125 -20.96508,0.34285 c -16.13278,0.26382 -21.07888,-0.0243 -21.45877,-1.25 z m 39.61802,-79.40535 c 0.40488,-65.93524 0.78576,-78.91861 2.6127,-89.0625 10.0552,-55.830478 33.95826,-102.687588 72.60172,-142.3209778 20.8054,-21.3383692 42.57953,-37.9073202 63.84141,-48.5799402 4.8125,-2.41568 8.88937,-4.51245 9.0597,-4.65948 0.17034,-0.14703 -2.90388,-7.39306 -6.8316,-16.10229 -6.29237,-13.95259 -7.44363,-15.74561 -9.6847,-15.08327 -4.91053,1.45128 -30.81706,16.81922 -42.49378,25.20761 -34.3697,24.69072 -63.74108,57.4637002 -85.39809,95.28835 -10.19584,17.80734 -17.08543,33.3262 -24.69466,55.624998 -8.4428,24.74156 -8.77848,24.7392 -17.40285,-0.12263 -3.60073,-10.379948 -6.91228,-19.464018 -7.359,-20.186828 -0.51922,-0.8401 -6.55543,0.92506 -16.73232,4.893 -8.75606,3.41396 -16.06938,6.35647 -16.25183,6.53892 -0.18245,0.18245 2.13278,7.03579 5.14495,15.229638 21.11577,57.4401 34.38158,125.86005 36.63716,188.9604 l 0.77077,21.5625 17.85322,0 17.85321,0 0.47399,-77.1875 z m 84.30091,73.125 c -16.46134,-23.35611 -27.38535,-49.87863 -33.07886,-80.3125 -3.00293,-16.05168 -2.88157,-56.61106 0.22067,-73.75 10.4411,-57.6841 40.44225,-107.726258 84.27674,-140.574358 30.45716,-22.8235694 79.50315,-39.74639 117.2219,-40.44623 l 12.36447,-0.22941 0,21.25000058 0,21.24999942 -12.77647,0.84784 c -22.07373,1.46481 -44.92681,7.51859 -67.29443,17.82629 -44.21918,20.37758 -77.16181,64.387588 -89.52387,119.600238 -2.55498,11.41133 -2.89636,16.14024 -2.83169,39.22563 0.071,25.32509 0.21146,26.76916 3.98846,40.98437 4.35164,16.37797 13.13657,35.86087 21.91542,48.60324 l 5.74417,8.3376 -15.47001,12.5999 c -8.50851,6.92994 -16.32058,12.59989 -17.36015,12.59989 -1.03956,0 -4.36791,-3.51563 -7.39635,-7.8125 z m 21.57285,-6.97465 13.50565,-11.03715 -5.02915,-7.40035 c -8.23056,-12.1112 -17.03725,-31.87801 -21.23658,-47.66598 -3.81133,-14.32929 -3.92098,-15.49041 -3.98846,-42.23437 -0.0615,-24.38169 0.26005,-28.97135 2.83584,-40.47563 12.51315,-55.88743 47.47434,-101.981878 92.95366,-122.554398 21.91821,-9.91468 44.19791,-15.84247 64.45361,-17.14867 l 12.8125,-0.82622 0,-18.10693942 0,-18.10694058 -10.9375,0.8505 c -32.63262,2.537501 -66.29147,12.5706506 -94.34413,28.12244 -45.89435,25.44284 -80.1978,70.854 -96.40444,127.620858 -14.24436,49.89361 -9.70774,104.49406 12.39162,149.13906 4.88224,9.86308 17.81908,30.86094 19.01352,30.86094 0.25751,0 6.54575,-4.96671 13.97386,-11.03715 z m 130.05707,12.35125 c -34.19573,-8.74602 -60.04178,-27.04515 -78.56145,-55.6219 -15.58836,-24.05361 -23.30307,-56.6755 -20.20595,-85.44145 3.28359,-30.4977 16.23368,-55.80239 40.14675,-78.44741 24.26928,-22.982348 56.87282,-34.444098 92.92562,-32.667928 57.67107,2.8412 102.12446,39.072788 117.88371,96.080728 1.74526,6.31333 2.18632,12.95232 2.18632,32.90886 l 0,25 -4.52536,12.8281 c -6.81485,19.31809 -14.40334,31.08596 -30.47464,47.25863 -14.53565,14.62733 -21.26358,19.61201 -37.56388,27.83081 -17.94673,9.04894 -29.45185,11.73317 -52.43612,12.23376 -16.63028,0.36219 -21.57955,0.0316 -29.375,-1.9622 z m 41.86232,-2.02204 c 16.37686,-1.74298 38.10653,-10.15473 55.63768,-21.53785 11.02279,-7.15717 30.99405,-28.15886 37.97464,-39.93395 19.13645,-32.28002 21.83408,-71.23283 7.45715,-107.67856 -5.2219,-13.2376 -16.16426,-30.79624 -25.08517,-40.25286 -44.38209,-47.047368 -126.7509,-49.686018 -173.97625,-5.57328 -39.33558,36.74299 -50.07834,90.34203 -28.40637,141.72826 7.53358,17.8628 23.84489,39.12505 38.286,49.90688 15.88044,11.85642 41.47569,21.7959 61.875,24.0281 8.65127,0.94666 11.6204,0.86895 26.23732,-0.68674 z m -31.40737,-36.15887 c -9.49126,-2.06414 -23.51696,-7.87898 -31.75423,-13.16482 -10.2424,-6.57252 -21.82652,-20.1626 -28.11393,-32.98226 -7.1275,-14.53255 -9.36171,-23.20194 -10.17607,-39.48611 -1.29897,-25.97458 5.7656,-44.44155 24.25227,-63.39619 9.16958,-9.40169 12.72681,-12.09291 21.75498,-16.45876 15.01965,-7.26321 25.41053,-9.23134 45.45703,-8.60996 14.08593,0.43662 17.68458,1.0064 27.02219,4.27841 13.18646,4.6207 26.42729,13.23086 34.90293,22.69646 8.1642,9.11776 18.13172,29.07621 20.7207,41.49004 2.76095,13.23845 1.83568,35.2955 -1.94014,46.25 -13.97543,40.54581 -61.54803,68.20791 -102.12573,59.38319 z m 31.78525,-3.83348 c 11.99279,-2.4276 29.69813,-10.88815 39.60452,-18.92514 20.1113,-16.31617 30.62268,-37.90353 30.61511,-62.87457 -0.005,-15.16886 -2.69619,-26.20161 -9.99644,-40.97538 -10.10675,-20.45336 -23.61247,-32.2299 -45.60039,-39.762 -8.08106,-2.76821 -12.85185,-3.52308 -24.988,-3.95381 -18.66158,-0.66231 -29.3885,1.41848 -44.15237,8.5646 -8.72584,4.22355 -12.57533,7.08724 -20.54044,15.28034 -16.94179,17.42671 -24.3566,37.03637 -23.0072,60.84625 0.8593,15.16222 3.23181,24.10815 10.11099,38.125 9.23836,18.82387 21.26967,30.12441 40.81606,38.33694 17.09606,7.183 30.51543,8.70256 47.13816,5.33777 z"
       id="path3442"
       inkscape:connector-curvature="0" />
  </g>
</svg>
