<?xml version="1.0" encoding="UTF-8" standalone="no"?>
<!-- Created with Inkscape (http://www.inkscape.org/) -->

<svg
   xmlns:dc="http://purl.org/dc/elements/1.1/"
   xmlns:cc="http://creativecommons.org/ns#"
   xmlns:rdf="http://www.w3.org/1999/02/22-rdf-syntax-ns#"
   xmlns:svg="http://www.w3.org/2000/svg"
   xmlns="http://www.w3.org/2000/svg"
   xmlns:sodipodi="http://sodipodi.sourceforge.net/DTD/sodipodi-0.dtd"
   xmlns:inkscape="http://www.inkscape.org/namespaces/inkscape"
   width="698.74329"
   height="330.69611"
   id="svg2"
   version="1.1"
   inkscape:version="0.47 r22583"
   sodipodi:docname="Documento nuevo 1">
  <defs
     id="defs4">
    <inkscape:perspective
       sodipodi:type="inkscape:persp3d"
       inkscape:vp_x="0 : 526.18109 : 1"
       inkscape:vp_y="0 : 1000 : 0"
       inkscape:vp_z="744.09448 : 526.18109 : 1"
       inkscape:persp3d-origin="372.04724 : 350.78739 : 1"
       id="perspective10" />
    <inkscape:perspective
       id="perspective2884"
       inkscape:persp3d-origin="0.5 : 0.33333333 : 1"
       inkscape:vp_z="1 : 0.5 : 1"
       inkscape:vp_y="0 : 1000 : 0"
       inkscape:vp_x="0 : 0.5 : 1"
       sodipodi:type="inkscape:persp3d" />
  </defs>
  <sodipodi:namedview
     id="base"
     pagecolor="#ffffff"
     bordercolor="#666666"
     borderopacity="1.0"
     inkscape:pageopacity="0.0"
     inkscape:pageshadow="2"
     inkscape:zoom="0.7"
     inkscape:cx="872.41405"
     inkscape:cy="-7.8838881"
     inkscape:document-units="px"
     inkscape:current-layer="layer1"
     showgrid="false"
     inkscape:window-width="1655"
     inkscape:window-height="1003"
     inkscape:window-x="1680"
     inkscape:window-y="0"
     inkscape:window-maximized="1" />
  <metadata
     id="metadata7">
    <rdf:RDF>
      <cc:Work
         rdf:about="">
        <dc:format>image/svg+xml</dc:format>
        <dc:type
           rdf:resource="http://purl.org/dc/dcmitype/StillImage" />
        <dc:title></dc:title>
      </cc:Work>
    </rdf:RDF>
  </metadata>
  <g
     inkscape:label="Capa 1"
     inkscape:groupmode="layer"
     id="layer1"
     transform="translate(768.22081,-642.34003)">
    <path
       id="path2896"
       d="m -408.20361,972.76487 c -16.24387,-2.8987 -24.98941,-6.7592 -33.80477,-14.9223 -11.36237,-10.5216 -17.76041,-27.6824 -18.2778,-49.02462 l -0.2181,-8.99678 25.90033,-0.6609 c 15.65267,-0.39941 29.65909,-1.28255 35.40034,-2.23207 5.225,-0.86413 9.725,-1.57895 10,-1.58848 0.275,-0.01 0.51693,6.3949 0.53763,14.23206 0.0442,16.72266 1.53276,21.81992 9.34394,31.99559 8.68913,11.3194 19.45788,16.684 35.11843,17.4948 38.03024,1.969 76.08221,-25.83711 82.02016,-59.93539 3.00919,-17.28 -7.49199,-35.62449 -23.90715,-41.76335 -13.29567,-4.97224 -16.0367,-5.22633 -65.11301,-6.03589 -36.58608,-0.60353 -47.8944,-1.09973 -53.04027,-2.32738 -25.55246,-6.09605 -40.76992,-16.77758 -47.9808,-33.67899 -1.91805,-4.49568 -2.35742,-7.32603 -2.40616,-15.5 -0.0726,-12.17896 1.76077,-19.62511 7.87903,-32 14.89665,-30.13015 43.13906,-47.29748 83.0482,-50.48137 13.68234,-1.09155 86.67663,-3.35023 99.5,-3.07885 29.02807,0.61433 52.51121,13.54301 62.3817,34.34437 3.54596,7.47286 6.6183,19.08724 6.6183,25.01919 l 0,3.40852 -24.75,0.62443 c -13.6125,0.34344 -28.575,1.26383 -33.25,2.04531 -4.675,0.78148 -10.43647,1.75167 -12.80327,2.15597 l -4.30327,0.73508 0.76967,-2.88632 c 0.42331,-1.58748 0.78478,-6.93633 0.80326,-11.88633 0.0285,-7.64445 -0.35651,-9.82839 -2.55655,-14.5 -3.4739,-7.37654 -7.20137,-11.58571 -14.35342,-16.2083 -9.44912,-6.10726 -17.81179,-8.23212 -32.05642,-8.14517 -14.04125,0.0857 -23.19947,2.17462 -34.63565,7.90007 -21.02925,10.52816 -32.55673,23.71689 -35.07863,40.13391 -3.55301,23.12932 11.52421,37.14047 45.19613,42.00042 10.17111,1.46802 15.02663,1.53597 41.51815,0.58097 33.41128,-1.20446 43.78323,-0.63829 59.11749,3.227 31.25495,7.8784 45.33843,25.89301 45.35201,58.0111 0.007,17.37177 -4.32663,33.11062 -13.21099,47.97578 -5.13805,8.5969 -21.04986,24.72692 -28.98131,29.37882 -12.2869,7.2064 -26.61683,11.5192 -43.65554,13.1389 -10.65825,1.0131 -121.4331,2.2869 -126.12166,1.4502 z m -247.5,-4.0923 c -27.6629,-5.8707 -45.1351,-28.29219 -52.0945,-66.8514 -2.1869,-12.11668 -2.4691,-45.47636 -0.5161,-61 2.3572,-18.73537 6.9161,-39.84098 12.6365,-58.5 2.2677,-7.39697 9.1279,-25.3912 11.3912,-29.87889 1.0045,-1.99161 2.1378,-4.62886 2.5186,-5.86055 l 0.6924,-2.23944 -43.5726,-0.26056 -43.5727,-0.26056 12.1881,-14.25 12.1882,-14.25 39.248,0 39.2481,0 3.7761,-6.25 c 8.5569,-14.1631 21.65246,-30.8313 32.54655,-41.42577 l 5.32215,-5.17578 41,-2.94018 c 22.55,-1.6171 41.18276,-2.78024 41.40613,-2.58476 0.22337,0.19547 -2.70163,3.12922 -6.5,6.51943 -11.88313,10.60621 -34.62904,33.98478 -41.69728,42.85706 l -6.77167,8.5 21.28141,0.33576 c 11.70478,0.18466 38.73884,-0.20791 60.0757,-0.87238 21.33686,-0.66447 38.99374,-1.00868 39.23751,-0.76491 0.98338,0.98338 -19.74835,27.81572 -21.85375,28.28454 -1.19793,0.26675 -28.62023,0.8297 -60.93844,1.251 l -58.7604,0.76599 -6.96512,14.61567 c -18.37351,38.55511 -26.16359,69.13727 -26.07999,102.38433 0.1122,44.60938 11.5798,68.31244 39.32349,81.28024 11.0967,5.18675 18.79451,6.71976 33.74241,6.71976 15.59079,0 21.93304,-1.36495 34.76417,-7.48176 12.18214,-5.80744 19.84081,-11.12393 38.6704,-26.84423 9.31401,-7.77601 17.07228,-14.0005 17.24059,-13.83219 0.82388,0.82389 -21.24195,62.89038 -22.61852,63.62108 -3.15297,1.6736 -26.62668,3.0378 -52.72873,3.0644 -14.75535,0.015 -37.62791,0.6801 -50.82791,1.4779 -29.19008,1.7642 -34.04425,1.7468 -43,-0.1538 z m 509.96342,-2.6014 c 0.27584,-1.2375 0.9494,-6.75 1.49681,-12.25 2.74138,-27.54372 3.41304,-47.50721 3.46538,-103 0.0594,-63.01831 -0.58697,-74.19772 -5.36577,-92.80048 -3.66636,-14.2723 -11.25796,-25.28694 -24.64935,-35.76372 -1.35065,-1.05669 -1.97111,-2.67897 -1.91229,-5 l 0.0871,-3.4358 14.95736,0.33862 c 8.22655,0.18624 30.19444,-0.40169 48.81752,-1.30652 18.623076,-0.90482 34.050906,-1.45438 34.284046,-1.22123 0.23315,0.23314 -0.69243,4.27613 -2.05684,8.98441 -5.1063,17.62079 -5.68509,25.17226 -6.6072,86.20472 -0.85649,56.68942 -0.0904,101.75137 2.00804,118.11702 1.3915,10.85214 4.44527,22.23695 8.44741,31.49298 l 3.29043,7.61 -9.01665,0.64 c -4.95915,0.352 -14.46001,0.6494 -21.11301,0.6608 -6.653006,0.011 -18.396376,0.6731 -26.096376,1.4704 -19.83296,2.0536 -20.65277,2.0233 -20.03658,-0.7412 z m 18.03658,-274.38575 c -7.92188,-1.66665 -19.16954,-6.53875 -21.08616,-9.1338 -2.25261,-3.04998 -2.57127,-10.43465 -0.9377,-21.73045 2.55106,-17.64008 3.27803,-18.51593 15.33896,-18.48019 17.34292,0.0514 41.354936,6.25768 44.850296,11.59227 1.48291,2.26322 1.43817,3.32211 -0.60316,14.27351 -2.80329,15.03917 -5.74581,21.66642 -10.502386,23.65385 -4.47792,1.87099 -17.74215,1.78512 -27.05985,-0.17519 z"
       style="fill:#000000;fill-opacity:1" />
  </g>
</svg>
