<?xml version="1.0" encoding="UTF-8" standalone="no"?>
<!-- Created with Inkscape (http://www.inkscape.org/) -->

<svg
   xmlns:dc="http://purl.org/dc/elements/1.1/"
   xmlns:cc="http://creativecommons.org/ns#"
   xmlns:rdf="http://www.w3.org/1999/02/22-rdf-syntax-ns#"
   xmlns:svg="http://www.w3.org/2000/svg"
   xmlns="http://www.w3.org/2000/svg"
   xmlns:sodipodi="http://sodipodi.sourceforge.net/DTD/sodipodi-0.dtd"
   xmlns:inkscape="http://www.inkscape.org/namespaces/inkscape"
   id="svg2"
   version="1.1"
   inkscape:version="0.91 r13725"
   xml:space="preserve"
   width="247.625"
   height="247.625"
   viewBox="0 0 247.625 247.625"
   sodipodi:docname="uclm_logo_watermark.svg"><sodipodi:namedview
     pagecolor="#ffffff"
     bordercolor="#666666"
     borderopacity="1"
     objecttolerance="10"
     gridtolerance="10"
     guidetolerance="10"
     inkscape:pageopacity="0"
     inkscape:pageshadow="2"
     inkscape:window-width="1920"
     inkscape:window-height="1022"
     id="namedview4"
     showgrid="false"
     inkscape:zoom="3.4245331"
     inkscape:cx="123.8125"
     inkscape:cy="123.8125"
     inkscape:window-x="0"
     inkscape:window-y="0"
     inkscape:window-maximized="1"
     inkscape:current-layer="g10"
     showguides="false" /><metadata
     id="metadata8"><rdf:RDF><cc:Work
         rdf:about=""><dc:format>image/svg+xml</dc:format><dc:type
           rdf:resource="http://purl.org/dc/dcmitype/StillImage" /></cc:Work></rdf:RDF></metadata><defs
     id="defs6" /><g
     id="g10"
     inkscape:groupmode="layer"
     inkscape:label="ink_ext_XXXXXX"
     transform="matrix(1.25,0,0,-1.25,0,247.625)"><g
       id="g12"
       transform="scale(0.1,0.1)"
       style="fill:#fff2ed;fill-opacity:1"><path
         d="M 1574.13,583.633 1980.96,990.48 990.48,1980.96 0,990.48 406.828,583.633 l 0,367.937 c 0,206.4 82.004,404.32 227.938,550.26 99.136,99.12 222.246,168.76 355.714,203.22 l 0,0 c 133.47,-34.46 256.57,-104.1 355.71,-203.22 145.93,-145.94 227.94,-343.86 227.94,-550.26 l 0,-367.937"
         style="fill:#fff2ed;fill-opacity:1;fill-rule:nonzero;stroke:none"
         id="path14"
         inkscape:connector-curvature="0" /><path
         d="m 1418.49,427.992 77.82,77.836 0,-0.137 0,445.879 c 0,185.76 -73.81,363.89 -205.14,495.24 -84.38,84.36 -188.06,145 -300.69,177.57 l 0,0 C 877.852,1591.81 774.172,1531.17 689.789,1446.81 558.457,1315.46 484.648,1137.33 484.648,951.57 l 0,-445.879 0,0.137 77.821,-77.836 0,-0.105 0,539.246 c 0,113.527 45.105,222.387 125.367,302.647 80.262,80.26 189.117,125.36 302.644,125.36 113.52,0 222.38,-45.1 302.64,-125.36 80.26,-80.26 125.37,-189.12 125.37,-302.647 l 0,-539.246"
         style="fill:#fff2ed;fill-opacity:1;fill-rule:nonzero;stroke:none"
         id="path16"
         inkscape:connector-curvature="0" /><path
         d="m 1262.85,272.371 77.82,77.805 0,-0.047 0,617.004 c 0,92.877 -36.9,181.947 -102.57,247.617 -65.67,65.68 -154.74,102.57 -247.62,102.57 -92.882,0 -181.949,-36.89 -247.621,-102.57 -65.675,-65.67 -102.57,-154.74 -102.57,-247.617 l 0,-617.004 0,0.047 77.82,-77.805 0,277.496 c 0,41.274 16.403,80.856 45.594,110.047 9.43,9.441 19.957,17.547 31.281,24.184 l 0,0 c -49.257,50.781 -76.875,118.789 -76.875,189.652 0,72.234 28.703,141.51 79.774,192.59 51.086,51.08 120.359,79.78 192.597,79.78 72.23,0 141.51,-28.7 192.59,-79.78 51.07,-51.08 79.78,-120.356 79.78,-192.59 0,-70.863 -27.62,-138.871 -76.88,-189.652 l 0,0 c 11.33,-6.637 21.85,-14.743 31.28,-24.184 29.2,-29.191 45.6,-68.773 45.6,-110.047 l 0,-277.484"
         style="fill:#fff2ed;fill-opacity:1;fill-rule:nonzero;stroke:none"
         id="path18"
         inkscape:connector-curvature="0" /><path
         d="m 990.48,0 194.55,194.551 0,-0.063 0,355.379 c 0,20.645 -8.19,40.434 -22.8,55.024 -14.59,14.586 -34.38,22.797 -55.02,22.797 l 0,90.421 c 7.32,5.493 14.28,11.52 20.83,18.082 36.48,36.485 56.99,85.954 56.99,137.559 0,51.605 -20.51,101.074 -56.99,137.56 -36.49,36.48 -85.96,56.99 -137.56,56.99 -51.605,0 -101.074,-20.51 -137.558,-56.99 -36.484,-36.486 -56.992,-85.955 -56.992,-137.56 0,-51.605 20.508,-101.074 56.992,-137.559 6.543,-6.562 13.504,-12.589 20.828,-18.082 l 0,-90.421 c -20.645,0 -40.438,-8.211 -55.023,-22.797 -14.606,-14.59 -22.797,-34.379 -22.797,-55.024 l 0,-355.379 0,0.063 L 990.48,0"
         style="fill:#fff2ed;fill-opacity:1;fill-rule:nonzero;stroke:none"
         id="path20"
         inkscape:connector-curvature="0" /></g></g></svg>