<?xml version="1.0" encoding="UTF-8" standalone="no"?>
<!-- Created with Inkscape (http://www.inkscape.org/) -->

<svg
   xmlns:dc="http://purl.org/dc/elements/1.1/"
   xmlns:cc="http://creativecommons.org/ns#"
   xmlns:rdf="http://www.w3.org/1999/02/22-rdf-syntax-ns#"
   xmlns:svg="http://www.w3.org/2000/svg"
   xmlns="http://www.w3.org/2000/svg"
   xmlns:sodipodi="http://sodipodi.sourceforge.net/DTD/sodipodi-0.dtd"
   xmlns:inkscape="http://www.inkscape.org/namespaces/inkscape"
   width="147.44058"
   height="122.0449"
   id="svg2640"
   sodipodi:version="0.32"
   inkscape:version="0.47 r22583"
   version="1.0"
   sodipodi:docname="logouclm_1.svg"
   inkscape:output_extension="org.inkscape.output.svg.inkscape">
  <defs
     id="defs2642">
    <inkscape:perspective
       sodipodi:type="inkscape:persp3d"
       inkscape:vp_x="0 : 526.18109 : 1"
       inkscape:vp_y="0 : 1000 : 0"
       inkscape:vp_z="744.09448 : 526.18109 : 1"
       inkscape:persp3d-origin="372.04724 : 350.78739 : 1"
       id="perspective2648" />
    <inkscape:perspective
       id="perspective3224"
       inkscape:persp3d-origin="245.175 : 47.037501 : 1"
       inkscape:vp_z="490.35001 : 70.556252 : 1"
       inkscape:vp_y="0 : 1000 : 0"
       inkscape:vp_x="0 : 70.556252 : 1"
       sodipodi:type="inkscape:persp3d" />
    <inkscape:perspective
       id="perspective2922"
       inkscape:persp3d-origin="0.5 : 0.33333333 : 1"
       inkscape:vp_z="1 : 0.5 : 1"
       inkscape:vp_y="0 : 1000 : 0"
       inkscape:vp_x="0 : 0.5 : 1"
       sodipodi:type="inkscape:persp3d" />
  </defs>
  <sodipodi:namedview
     id="base"
     pagecolor="#ffffff"
     bordercolor="#666666"
     borderopacity="1.0"
     inkscape:pageopacity="0.0"
     inkscape:pageshadow="2"
     inkscape:zoom="5.268553"
     inkscape:cx="73.720293"
     inkscape:cy="75.447661"
     inkscape:document-units="mm"
     inkscape:current-layer="layer1"
     showgrid="false"
     units="mm"
     inkscape:window-width="1256"
     inkscape:window-height="740"
     inkscape:window-x="22"
     inkscape:window-y="27"
     showborder="false"
     inkscape:showpageshadow="true"
     inkscape:window-maximized="0" />
  <metadata
     id="metadata2645">
    <rdf:RDF>
      <cc:Work
         rdf:about="">
        <dc:format>image/svg+xml</dc:format>
        <dc:type
           rdf:resource="http://purl.org/dc/dcmitype/StillImage" />
        <dc:title />
      </cc:Work>
    </rdf:RDF>
  </metadata>
  <g
     inkscape:label="Capa 1"
     inkscape:groupmode="layer"
     id="layer1"
     transform="translate(-244.98999,766.79667)">
    <polygon
       style="font-style:normal;font-variant:normal;font-weight:normal;font-stretch:normal;letter-spacing:normal;word-spacing:normal;text-anchor:start;fill:#981325;fill-opacity:1;fill-rule:nonzero;stroke:#b80040;stroke-width:0;stroke-linecap:butt;stroke-linejoin:miter;stroke-miterlimit:10.43299961;stroke-opacity:1;stroke-dasharray:none;stroke-dashoffset:0"
       id="background"
       points="0.54297,54.09 0.54297,0.9375 0.54297,0.9375 85.582,0.9375 85.582,54.09 "
       transform="matrix(1.7337989,0,0,-2.2961271,244.04859,-642.59915)"
       inkscape:label="#polygon9" />
    <path
       style="font-style:normal;font-variant:normal;font-weight:normal;font-stretch:normal;letter-spacing:normal;word-spacing:normal;text-anchor:start;fill:#ffffff;fill-opacity:1;stroke:#ffffff;stroke-width:0;stroke-linecap:butt;stroke-linejoin:miter;stroke-miterlimit:10.43299961;stroke-opacity:1;stroke-dasharray:none;stroke-dashoffset:0"
       d="m 290.56492,-658.33257 -1.72733,4.38477 0.99653,0 0.39862,-1.06298 1.39515,0 0.33218,1.06298 1.39515,0 -1.66089,-4.38477 -1.12941,0 z m 0.39861,1.26228 0.46505,1.32872 -0.9301,0 0.46505,-1.32872 z"
       id="polygon67" />
    <path
       style="font-style:normal;font-variant:normal;font-weight:normal;font-stretch:normal;letter-spacing:normal;word-spacing:normal;text-anchor:start;fill:#ffffff;fill-opacity:1;stroke:#ffffff;stroke-width:0;stroke-linecap:butt;stroke-linejoin:miter;stroke-miterlimit:10.43299961;stroke-opacity:1;stroke-dasharray:none;stroke-dashoffset:0"
       d="m 380.4828,-658.34356 -1.77752,4.37773 1.04107,0 0.38939,-1.08347 1.38805,0 0.34702,1.08347 1.38652,0 -1.68951,-4.37773 -1.08502,0 z m 0.39098,1.25612 0.43336,1.38807 -0.95474,0 0.52138,-1.38807 z"
       id="polygon13" />
    <polygon
       style="font-style:normal;font-variant:normal;font-weight:normal;font-stretch:normal;letter-spacing:normal;word-spacing:normal;text-anchor:start;fill:#ffffff;fill-opacity:1;stroke:#ffffff;stroke-width:0;stroke-linecap:butt;stroke-linejoin:miter;stroke-miterlimit:10.43299961;stroke-opacity:1;stroke-dasharray:none;stroke-dashoffset:0"
       id="polygon15"
       points="77.246,8.7773 77.246,6.2578 77.246,6.2578 76.492,6.2578 76.492,7.4102 75.688,7.4102 75.688,6.2578 74.934,6.2578 74.934,8.7773 75.688,8.7773 75.688,7.8906 76.492,7.8906 76.492,8.7773 "
       transform="matrix(1.7341477,0,0,-1.7341477,244.04839,-643.12603)" />
    <path
       style="font-style:normal;font-variant:normal;font-weight:normal;font-stretch:normal;letter-spacing:normal;word-spacing:normal;text-anchor:start;fill:#ffffff;fill-opacity:1;stroke:#ffffff;stroke-width:0;stroke-linecap:butt;stroke-linejoin:miter;stroke-miterlimit:10.43299961;stroke-opacity:1;stroke-dasharray:none;stroke-dashoffset:0"
       id="path17"
       d="m 373.28973,-654.09454 -0.0685,0.0228 -0.0653,0.0213 -0.0684,0.0191 -0.0668,0.017 -0.0684,0.017 -0.0668,0.017 -0.0684,0.0149 -0.0685,0.0128 -0.0685,0.0106 -0.0702,0.0106 -0.0668,0.008 -0.0702,0.006 -0.0702,0.004 -0.0699,0.004 -0.0716,0.002 -0.0684,0.002 c -0.75924,0 -1.38163,-0.21026 -1.87202,-0.61746 -0.47898,-0.4187 -0.71687,-0.96775 -0.71687,-1.64554 0,-0.65003 0.23789,-1.18609 0.70547,-1.6113 0.47415,-0.42687 1.07696,-0.64357 1.80848,-0.64357 0.39264,0 0.77873,0.0734 1.17142,0.2167 l -0.32425,0.78535 c -0.23788,-0.0604 -0.44152,-0.088 -0.61746,-0.088 -0.42037,0 -0.75758,0.12224 -1.0101,0.3649 -0.24279,0.24438 -0.37151,0.57677 -0.37151,0.98244 0,0.38612 0.11565,0.7055 0.34544,0.94169 0.24923,0.27046 0.60279,0.39917 1.05575,0.39917 0.21663,0 0.44145,-0.0325 0.67934,-0.0944 l 0.24279,0.81953 z" />
    <polygon
       style="font-style:normal;font-variant:normal;font-weight:normal;font-stretch:normal;letter-spacing:normal;word-spacing:normal;text-anchor:start;fill:#ffffff;fill-opacity:1;stroke:#ffffff;stroke-width:0;stroke-linecap:butt;stroke-linejoin:miter;stroke-miterlimit:10.43299961;stroke-opacity:1;stroke-dasharray:none;stroke-dashoffset:0"
       id="polygon19"
       points="70.375,7.6836 70.375,6.2578 69.781,6.2578 69.781,8.7773 70.309,8.7773 71.402,7.3789 71.402,8.7773 71.992,8.7773 71.992,6.2578 71.992,6.2578 71.516,6.2578 "
       transform="matrix(1.7341477,0,0,-1.7341477,244.04839,-643.12603)" />
    <path
       style="font-style:normal;font-variant:normal;font-weight:normal;font-stretch:normal;letter-spacing:normal;word-spacing:normal;text-anchor:start;fill:#ffffff;fill-opacity:1;stroke:#ffffff;stroke-width:0;stroke-linecap:butt;stroke-linejoin:miter;stroke-miterlimit:10.43299961;stroke-opacity:1;stroke-dasharray:none;stroke-dashoffset:0"
       d="m 361.58475,-658.33257 -1.79376,4.38477 1.06297,0 0.39862,-1.06298 1.39515,0 0.33218,1.06298 1.39515,0 -1.6609,-4.38477 -1.12941,0 z m 0.39862,1.26228 0.46505,1.32872 -0.9301,0 0.46505,-1.32872 z"
       id="polygon23" />
    <path
       style="font-style:normal;font-variant:normal;font-weight:normal;font-stretch:normal;letter-spacing:normal;word-spacing:normal;text-anchor:start;fill:#ffffff;fill-opacity:1;stroke:#ffffff;stroke-width:0;stroke-linecap:butt;stroke-linejoin:miter;stroke-miterlimit:10.43299961;stroke-opacity:1;stroke-dasharray:none;stroke-dashoffset:0"
       id="path25"
       d="m 359.11706,-653.97889 -1.24476,0 0,-2.20107 c 0,-0.16285 0.006,-0.45459 0.0191,-0.86675 -0.0604,0.25741 -0.15477,0.54088 -0.26391,0.86675 l -0.76411,2.20107 -0.55068,0 -0.78529,-2.20107 c -0.0814,-0.23787 -0.16773,-0.5279 -0.26395,-0.87491 0.0149,0.30466 0.0262,0.5963 0.0262,0.87491 l 0,2.20107 -1.02803,0 0,-4.36958 1.55105,0 0.91562,2.67682 0.88629,-2.67682 1.50215,0 0,4.36958 z" />
    <path
       style="font-style:normal;font-variant:normal;font-weight:normal;font-stretch:normal;letter-spacing:normal;word-spacing:normal;text-anchor:start;fill:#ffffff;fill-opacity:1;stroke:#ffffff;stroke-width:0;stroke-linecap:butt;stroke-linejoin:miter;stroke-miterlimit:10.43299961;stroke-opacity:1;stroke-dasharray:none;stroke-dashoffset:0"
       d="m 349.75919,-658.33257 -1.72733,4.38477 0.99653,0 0.39862,-1.06298 1.39515,0 0.33218,1.06298 1.39515,0 -1.66089,-4.38477 -1.12941,0 z m 0.39861,1.26228 0.46505,1.32872 -0.9301,0 0.46505,-1.32872 z"
       id="polygon29" />
    <polygon
       style="font-style:normal;font-variant:normal;font-weight:normal;font-stretch:normal;letter-spacing:normal;word-spacing:normal;text-anchor:start;fill:#ffffff;fill-opacity:1;stroke:#ffffff;stroke-width:0;stroke-linecap:butt;stroke-linejoin:miter;stroke-miterlimit:10.43299961;stroke-opacity:1;stroke-dasharray:none;stroke-dashoffset:0"
       id="polygon31"
       points="58.805,8.7773 58.805,6.7383 59.727,6.7383 59.727,6.2578 59.727,6.2578 58.047,6.2578 58.047,8.7773 "
       transform="matrix(1.7341477,0,0,-1.7341477,244.04839,-643.12603)" />
    <path
       style="font-style:normal;font-variant:normal;font-weight:normal;font-stretch:normal;letter-spacing:normal;word-spacing:normal;text-anchor:start;fill:#ffffff;fill-opacity:1;stroke:#ffffff;stroke-width:0;stroke-linecap:butt;stroke-linejoin:miter;stroke-miterlimit:10.43299961;stroke-opacity:1;stroke-dasharray:none;stroke-dashoffset:0"
       id="path33"
       d="m 343.81534,-656.65405 -0.004,0.0308 -0.004,0.031 -0.004,0.031 -0.008,0.031 -0.006,0.031 -0.006,0.0293 -0.008,0.0293 -0.009,0.0293 -0.009,0.0276 -0.008,0.0293 -0.0106,0.0278 -0.008,0.0276 -0.0128,0.0259 -0.0106,0.0276 -0.0106,0.0261 -0.0128,0.0245 c -0.15646,0.34702 -0.38615,0.51482 -0.69733,0.51482 -0.12862,0 -0.31929,-0.0604 -0.56856,-0.189 -0.18411,-0.0944 -0.31936,-0.13521 -0.40735,-0.13521 -0.189,0 -0.32419,0.10758 -0.40567,0.32423 l -0.35846,0 c 0.0457,-0.2167 0.0946,-0.37801 0.14818,-0.48063 0.1418,-0.31118 0.3666,-0.46758 0.65658,-0.46758 0.11565,0 0.2786,0.0555 0.48877,0.16943 0.20856,0.10269 0.36498,0.15647 0.47247,0.15647 0.22323,0 0.3731,-0.11565 0.45455,-0.35186 l 0.35193,0 z" />
    <path
       style="font-style:normal;font-variant:normal;font-weight:normal;font-stretch:normal;letter-spacing:normal;word-spacing:normal;text-anchor:start;fill:#ffffff;fill-opacity:1;stroke:#ffffff;stroke-width:0;stroke-linecap:butt;stroke-linejoin:miter;stroke-miterlimit:10.43299961;stroke-opacity:1;stroke-dasharray:none;stroke-dashoffset:0"
       d="m 338.13293,-658.33257 -1.79377,4.38477 0.99654,0 0.46505,-1.06298 1.32871,0 0.33218,1.06298 1.39515,0 -1.66089,-4.38477 -1.06297,0 z m 0.33218,1.26228 0.46505,1.32872 -0.9301,0 0.46505,-1.32872 z"
       id="polygon37" />
    <polygon
       style="font-style:normal;font-variant:normal;font-weight:normal;font-stretch:normal;letter-spacing:normal;word-spacing:normal;text-anchor:start;fill:#ffffff;fill-opacity:1;stroke:#ffffff;stroke-width:0;stroke-linecap:butt;stroke-linejoin:miter;stroke-miterlimit:10.43299961;stroke-opacity:1;stroke-dasharray:none;stroke-dashoffset:0"
       id="polygon39"
       points="52.074,8.7773 52.074,6.7383 53,6.7383 53,6.2578 53,6.2578 51.32,6.2578 51.32,8.7773 "
       transform="matrix(1.7341477,0,0,-1.7341477,244.04839,-643.12603)" />
    <polygon
       style="font-style:normal;font-variant:normal;font-weight:normal;font-stretch:normal;letter-spacing:normal;word-spacing:normal;text-anchor:start;fill:#ffffff;fill-opacity:1;stroke:#ffffff;stroke-width:0;stroke-linecap:butt;stroke-linejoin:miter;stroke-miterlimit:10.43299961;stroke-opacity:1;stroke-dasharray:none;stroke-dashoffset:0"
       id="polygon41"
       points="50.09,8.7773 50.09,6.7383 51.016,6.7383 51.016,6.2578 51.016,6.2578 49.336,6.2578 49.336,8.7773 "
       transform="matrix(1.7341477,0,0,-1.7341477,244.04839,-643.12603)" />
    <polygon
       style="font-style:normal;font-variant:normal;font-weight:normal;font-stretch:normal;letter-spacing:normal;word-spacing:normal;text-anchor:start;fill:#ffffff;fill-opacity:1;stroke:#ffffff;stroke-width:0;stroke-linecap:butt;stroke-linejoin:miter;stroke-miterlimit:10.43299961;stroke-opacity:1;stroke-dasharray:none;stroke-dashoffset:0"
       id="polygon43"
       points="48.004,6.2578 48.004,6.2578 48.758,6.2578 48.758,8.7773 48.004,8.7773 "
       transform="matrix(1.7341477,0,0,-1.7341477,244.04839,-643.12603)" />
    <polygon
       style="font-style:normal;font-variant:normal;font-weight:normal;font-stretch:normal;letter-spacing:normal;word-spacing:normal;text-anchor:start;fill:#ffffff;fill-opacity:1;stroke:#ffffff;stroke-width:0;stroke-linecap:butt;stroke-linejoin:miter;stroke-miterlimit:10.43299961;stroke-opacity:1;stroke-dasharray:none;stroke-dashoffset:0"
       id="polygon45"
       points="45.492,8.7773 47.703,8.7773 47.703,8.2969 47.703,8.2969 46.969,8.2969 46.969,6.2578 46.215,6.2578 46.215,8.2969 45.492,8.2969 "
       transform="matrix(1.7341477,0,0,-1.7341477,244.04839,-643.12603)" />
    <path
       style="font-style:normal;font-variant:normal;font-weight:normal;font-stretch:normal;letter-spacing:normal;word-spacing:normal;text-anchor:start;fill:#ffffff;fill-opacity:1;stroke:#ffffff;stroke-width:0;stroke-linecap:butt;stroke-linejoin:miter;stroke-miterlimit:10.43299961;stroke-opacity:1;stroke-dasharray:none;stroke-dashoffset:0"
       id="path47"
       d="m 322.47079,-655.19756 -0.002,0.0359 0,0.0359 -0.004,0.0342 -0.004,0.0342 -0.004,0.0342 -0.004,0.0342 -0.004,0.0342 -0.009,0.0325 -0.009,0.0325 -0.008,0.031 -0.0106,0.0325 -0.0106,0.031 -0.0106,0.0308 -0.0128,0.0293 -0.0127,0.0308 -0.0149,0.0293 -0.0128,0.0293 -0.017,0.0278 -0.017,0.0276 -0.017,0.0276 -0.017,0.0276 -0.0213,0.0276 -0.0213,0.0261 -0.0191,0.0259 -0.0228,0.0245 -0.0227,0.0261 -0.0245,0.0245 -0.0262,0.0245 -0.0261,0.0227 -0.0261,0.0245 -0.0276,0.0228 -0.0293,0.0213 c -0.31115,0.23785 -0.71846,0.36003 -1.21863,0.36003 -0.51484,0 -0.97426,-0.13521 -1.37511,-0.40731 l 0.39269,-0.72497 c 0.2509,0.21025 0.51322,0.31281 0.79344,0.31281 0.15477,0 0.28345,-0.0408 0.39098,-0.11565 0.10907,-0.0814 0.16285,-0.18241 0.16285,-0.30465 0,-0.12224 -0.0457,-0.24435 -0.15477,-0.37308 -0.0684,-0.0814 -0.23134,-0.23619 -0.48061,-0.46108 -0.14988,-0.13521 -0.34538,-0.31115 -0.58976,-0.52787 -0.21672,-0.23621 -0.32586,-0.49364 -0.32586,-0.77225 0,-0.34538 0.1418,-0.62235 0.42687,-0.8325 0.2786,-0.20366 0.65168,-0.31123 1.11763,-0.31123 0.40078,0 0.78526,0.10098 1.15188,0.28997 l -0.35193,0.69081 c -0.22319,-0.10736 -0.42681,-0.16136 -0.58974,-0.16136 -0.27701,0 -0.41224,0.088 -0.41224,0.27046 0,0.0748 0.0262,0.1418 0.0814,0.2167 0.0604,0.0685 0.18092,0.18241 0.37313,0.34538 0.22156,0.189 0.44476,0.39913 0.65491,0.62401 0.27863,0.29816 0.42032,0.60934 0.42032,0.94819 z" />
    <path
       style="font-style:normal;font-variant:normal;font-weight:normal;font-stretch:normal;letter-spacing:normal;word-spacing:normal;text-anchor:start;fill:#ffffff;fill-opacity:1;stroke:#ffffff;stroke-width:0;stroke-linecap:butt;stroke-linejoin:miter;stroke-miterlimit:10.43299961;stroke-opacity:1;stroke-dasharray:none;stroke-dashoffset:0"
       d="m 316.40843,-658.33257 -1.72733,4.38477 0.99654,0 0.46505,-1.06298 1.32871,0 0.33218,1.06298 1.39515,0 -1.66089,-4.38477 -1.12941,0 z m 0.39862,1.26228 0.46505,1.32872 -0.9301,0 0.46505,-1.32872 z"
       id="polygon51" />
    <path
       style="font-style:normal;font-variant:normal;font-weight:normal;font-stretch:normal;letter-spacing:normal;word-spacing:normal;text-anchor:start;fill:#ffffff;fill-opacity:1;stroke:#ffffff;stroke-width:0;stroke-linecap:butt;stroke-linejoin:miter;stroke-miterlimit:10.43299961;stroke-opacity:1;stroke-dasharray:none;stroke-dashoffset:0"
       id="path53"
       d="m 314.2204,-654.09454 -0.0667,0.0228 -0.0685,0.0213 -0.0668,0.0191 -0.0685,0.017 -0.0667,0.017 -0.067,0.017 -0.0684,0.0149 -0.0685,0.0128 -0.0684,0.0106 -0.0668,0.0106 -0.0702,0.008 -0.0668,0.006 -0.0702,0.004 -0.0684,0.004 -0.0702,0.002 -0.0684,0.002 c -0.76575,0 -1.38971,-0.21026 -1.87687,-0.61746 -0.48066,-0.4187 -0.71846,-0.96775 -0.71846,-1.64554 0,-0.65003 0.2378,-1.18609 0.71195,-1.6113 0.46758,-0.42687 1.06876,-0.64357 1.80193,-0.64357 0.39266,0 0.77714,0.0734 1.1714,0.2167 l -0.3258,0.78535 c -0.23628,-0.0604 -0.43997,-0.088 -0.61589,-0.088 -0.41873,0 -0.75924,0.12224 -1.00853,0.3649 -0.24435,0.24438 -0.37306,0.57677 -0.37306,0.98244 0,0.38612 0.11417,0.7055 0.34543,0.94169 0.25088,0.27046 0.60281,0.39917 1.05729,0.39917 0.21674,0 0.43997,-0.0325 0.67616,-0.0944 l 0.2444,0.81953 z" />
    <polygon
       style="font-style:normal;font-variant:normal;font-weight:normal;font-stretch:normal;letter-spacing:normal;word-spacing:normal;text-anchor:start;fill:#ffffff;fill-opacity:1;stroke:#ffffff;stroke-width:0;stroke-linecap:butt;stroke-linejoin:miter;stroke-miterlimit:10.43299961;stroke-opacity:1;stroke-dasharray:none;stroke-dashoffset:0"
       id="polygon55"
       points="37.051,6.7383 37.051,6.2578 37.051,6.2578 35.367,6.2578 35.367,8.7773 36.898,8.7773 36.898,8.2969 36.121,8.2969 36.121,7.8164 36.883,7.8164 36.883,7.3359 36.121,7.3359 36.121,6.7383 "
       transform="matrix(1.7341477,0,0,-1.7341477,244.04839,-643.12603)" />
    <path
       style="font-style:normal;font-variant:normal;font-weight:normal;font-stretch:normal;letter-spacing:normal;word-spacing:normal;text-anchor:start;fill:#ffffff;fill-opacity:1;stroke:#ffffff;stroke-width:0;stroke-linecap:butt;stroke-linejoin:miter;stroke-miterlimit:10.43299961;stroke-opacity:1;stroke-dasharray:none;stroke-dashoffset:0"
       d="m 300.46385,-658.33257 0,4.38477 1.46158,0 c 0.73152,0 1.30695,-0.19298 1.72733,-0.46506 l 0.0664,-0.0664 0.0664,-0.0664 0.0664,0 0.0664,-0.0664 0,-0.0664 0.0664,0 0.0664,-0.0664 0,-0.0664 0.0664,-0.0664 0.0664,0 0,-0.0664 0.0664,-0.0664 0,-0.0664 0.0664,-0.0664 0,-0.0664 0.0664,0 0,-0.0664 0,-0.0664 0.0664,-0.0664 0,-0.0664 0,-0.0664 0.0664,-0.0664 0,-0.0664 0,-0.0664 0,-0.0664 0,-0.0664 0.0664,-0.0664 0,-0.13287 0,-0.0664 0,-0.0664 0,-0.0664 c 0,-0.53601 -0.16201,-0.97676 -0.46505,-1.32871 -0.3063,-0.36001 -0.71163,-0.5699 -1.26228,-0.66436 -0.20207,-0.0408 -0.52081,-0.0664 -0.99653,-0.0664 l -1.39515,0 z m 1.32871,0.79723 0.19931,0 c 0.31936,0 0.55479,0.0836 0.73079,0.19931 l 0.0664,0 0,0.0664 0.0664,0 0,0.0664 0.0664,0 0,0.0664 0.0664,0 0,0.0664 0.0664,0.0664 0,0.0664 0.0664,0.0664 0,0.0664 0,0.0664 0,0.0664 0.0664,0 0,0.0664 0,0.0664 0,0.0664 0,0.0664 0,0.0664 0,0.0664 c 0,0.51482 -0.0878,0.9449 -0.33218,1.19585 -0.1824,0.18893 -0.46936,0.26574 -0.86366,0.26574 l -0.19931,0 0,-2.72387 z"
       id="path59" />
    <path
       style="font-style:normal;font-variant:normal;font-weight:normal;font-stretch:normal;letter-spacing:normal;word-spacing:normal;text-anchor:start;fill:#ffffff;fill-opacity:1;stroke:#ffffff;stroke-width:0;stroke-linecap:butt;stroke-linejoin:miter;stroke-miterlimit:10.43299961;stroke-opacity:1;stroke-dasharray:none;stroke-dashoffset:0"
       d="m 293.88671,-658.33257 0,4.38477 1.46158,0 c 0.7315,0 1.2471,-0.19298 1.6609,-0.46506 l 0.0664,0 0.0664,-0.0664 0.0664,-0.0664 0.0664,0 0.0664,-0.0664 0,-0.0664 0.0664,0 0.0664,-0.0664 0,-0.0664 0.0664,-0.0664 0.0664,0 0,-0.0664 0.0664,-0.0664 0,-0.0664 0.0664,-0.0664 0,-0.0664 0.0664,0 0,-0.0664 0,-0.0664 0.0664,-0.0664 0,-0.0664 0,-0.0664 0.0664,-0.0664 0,-0.0664 0,-0.0664 0,-0.0664 0,-0.0664 0,-0.0664 0.0664,-0.13287 0,-0.0664 0,-0.0664 0,-0.0664 c 0,-0.53601 -0.15878,-0.97676 -0.46505,-1.32871 -0.30469,-0.36001 -0.71317,-0.5699 -1.26228,-0.66436 -0.20364,-0.0408 -0.59371,-0.0664 -1.06297,-0.0664 l -1.32871,0 z m 1.26228,0.79723 0.26574,0 c 0.31934,0 0.55481,0.0836 0.73079,0.19931 l 0.0664,0 0,0.0664 0.0664,0 0,0.0664 0.0664,0 0,0.0664 0.0664,0 0,0.0664 0.0664,0.0664 0,0.0664 0,0.0664 0.0664,0 0,0.0664 0,0.0664 0,0.0664 0.0664,0.0664 0,0.0664 0,0.0664 0,0.0664 0,0.0664 0,0.0664 c 0,0.51482 -0.0895,0.9449 -0.33218,1.19585 -0.1841,0.18893 -0.53097,0.26574 -0.9301,0.26574 l -0.1993,0 0,-2.72387 z"
       id="path63" />
    <path
       style="font-style:normal;font-variant:normal;font-weight:normal;font-stretch:normal;letter-spacing:normal;word-spacing:normal;text-anchor:start;fill:#ffffff;fill-opacity:1;stroke:#ffffff;stroke-width:0;stroke-linecap:butt;stroke-linejoin:miter;stroke-miterlimit:10.43299961;stroke-opacity:1;stroke-dasharray:none;stroke-dashoffset:0"
       d="m 284.51926,-658.33257 0,4.38477 1.46159,0 c 0.72503,0 1.31511,-0.19298 1.72733,-0.46506 l 0.0664,0 0.0664,-0.0664 0,-0.0664 0.0664,0 0.0664,-0.0664 0.0664,-0.0664 0.0664,-0.0664 0.0664,-0.0664 0,-0.0664 0.0664,0 0,-0.0664 0.0664,-0.0664 0.0664,-0.0664 0,-0.0664 0,-0.0664 0.0664,0 0,-0.0664 0.0664,-0.0664 0,-0.0664 0,-0.0664 0.0664,-0.0664 0,-0.0664 0,-0.0664 0,-0.0664 0.0664,-0.0664 0,-0.0664 0,-0.0664 0,-0.13287 0,-0.0664 0,-0.0664 0,-0.0664 c 0,-0.53601 -0.15877,-0.97676 -0.46505,-1.32871 -0.30467,-0.36001 -0.71485,-0.5699 -1.26228,-0.66436 -0.20201,-0.0408 -0.53059,-0.0664 -0.99654,-0.0664 l -1.39515,0 z m 1.32872,0.79723 0.19931,0 c 0.31763,0 0.55487,0.0836 0.73079,0.19931 l 0.0664,0 0.0664,0.0664 0,0.0664 0.0664,0 0,0.0664 0.0664,0 0,0.0664 0.0664,0 0,0.0664 0,0.0664 0.0664,0 0,0.0664 0,0.0664 0,0.0664 0.0664,0 0,0.0664 0,0.0664 0,0.0664 0,0.0664 0,0.0664 0,0.0664 0,0.0664 c 0,0.51482 -0.0894,0.9449 -0.33218,1.19585 -0.18409,0.18893 -0.46448,0.26574 -0.86366,0.26574 l -0.19931,0 0,-2.72387 z"
       id="path71" />
    <polygon
       style="font-style:normal;font-variant:normal;font-weight:normal;font-stretch:normal;letter-spacing:normal;word-spacing:normal;text-anchor:start;fill:#ffffff;fill-opacity:1;stroke:#ffffff;stroke-width:0;stroke-linecap:butt;stroke-linejoin:miter;stroke-miterlimit:10.43299961;stroke-opacity:1;stroke-dasharray:none;stroke-dashoffset:0"
       id="polygon73"
       points="22.012,6.2578 22.012,6.2578 22.766,6.2578 22.766,8.7773 22.012,8.7773 "
       transform="matrix(1.7341477,0,0,-1.7341477,244.04839,-643.12603)" />
    <path
       style="font-style:normal;font-variant:normal;font-weight:normal;font-stretch:normal;letter-spacing:normal;word-spacing:normal;text-anchor:start;fill:#ffffff;fill-opacity:1;stroke:#ffffff;stroke-width:0;stroke-linecap:butt;stroke-linejoin:miter;stroke-miterlimit:10.43299961;stroke-opacity:1;stroke-dasharray:none;stroke-dashoffset:0"
       id="path75"
       d="m 281.38657,-655.19756 0,0.0359 -0.002,0.0359 -0.002,0.0342 -0.004,0.0342 -0.004,0.0342 -0.004,0.0342 -0.006,0.0342 -0.006,0.0325 -0.009,0.0325 -0.009,0.031 -0.0106,0.0325 -0.0106,0.031 -0.0106,0.0308 -0.0128,0.0293 -0.0127,0.0308 -0.0149,0.0293 -0.0149,0.0293 -0.017,0.0278 -0.017,0.0276 -0.017,0.0276 -0.0191,0.0276 -0.017,0.0276 -0.0213,0.0261 -0.0213,0.0259 -0.0227,0.0245 -0.0245,0.0261 -0.0244,0.0245 -0.0228,0.0245 -0.0261,0.0227 -0.0276,0.0245 -0.0293,0.0228 -0.0276,0.0213 c -0.30463,0.23785 -0.7103,0.36003 -1.21377,0.36003 -0.51322,0 -0.97427,-0.13521 -1.37995,-0.40731 l 0.39917,-0.72497 c 0.2509,0.21025 0.51486,0.31281 0.79177,0.31281 0.15647,0 0.28517,-0.0408 0.39432,-0.11565 0.10757,-0.0814 0.16136,-0.18241 0.16136,-0.30465 0,-0.12224 -0.0472,-0.24435 -0.15477,-0.37308 -0.0668,-0.0814 -0.22973,-0.23619 -0.48225,-0.46108 -0.14818,-0.13521 -0.35193,-0.31115 -0.58978,-0.52787 -0.21668,-0.23621 -0.32423,-0.49364 -0.32423,-0.77225 0,-0.34538 0.14329,-0.62235 0.42687,-0.8325 0.27858,-0.20366 0.65009,-0.31123 1.11278,-0.31123 0.40563,0 0.79177,0.10098 1.15839,0.28997 l -0.35519,0.69081 c -0.22813,-0.10736 -0.42521,-0.16136 -0.58654,-0.16136 -0.28022,0 -0.41543,0.088 -0.41543,0.27046 0,0.0748 0.0276,0.1418 0.0814,0.2167 0.0538,0.0685 0.18411,0.18241 0.3731,0.34538 0.22321,0.189 0.43986,0.39913 0.65658,0.62401 0.27858,0.29816 0.41381,0.60934 0.41381,0.94819 z" />
    <path
       style="font-style:normal;font-variant:normal;font-weight:normal;font-stretch:normal;letter-spacing:normal;word-spacing:normal;text-anchor:start;fill:#ffffff;fill-opacity:1;stroke:#ffffff;stroke-width:0;stroke-linecap:butt;stroke-linejoin:miter;stroke-miterlimit:10.43299961;stroke-opacity:1;stroke-dasharray:none;stroke-dashoffset:0"
       d="m 274.22172,-658.33257 0,4.38477 1.32871,0 0,-1.72733 0.33218,0 0.7308,1.79376 1.39515,-0.13287 -1.06298,-1.8602 c 0.53438,-0.27046 0.79723,-0.66632 0.79723,-1.19585 0,-0.43985 -0.13925,-0.77331 -0.46505,-0.99653 -0.16943,-0.11565 -0.40044,-0.23154 -0.66435,-0.26575 -0.14176,-0.0213 -0.3483,1e-5 -0.66436,0 l -1.72733,0 z m 1.32871,0.7308 0.26575,0 c 0.25094,0 0.43048,0.0726 0.53148,0.13287 l 0.0664,0 0,0.0664 0.0664,0.0664 0,0.0664 0,0.0664 0.0664,0 0,0.0664 0,0.0664 0,0.0664 c 0,0.20367 -0.0852,0.3575 -0.19931,0.46505 -0.10914,0.10917 -0.26106,0.13287 -0.53148,0.13287 l -0.26575,0 0,-1.19584 z"
       id="path79" />
    <polygon
       style="font-style:normal;font-variant:normal;font-weight:normal;font-stretch:normal;letter-spacing:normal;word-spacing:normal;text-anchor:start;fill:#ffffff;fill-opacity:1;stroke:#ffffff;stroke-width:0;stroke-linecap:butt;stroke-linejoin:miter;stroke-miterlimit:10.43299961;stroke-opacity:1;stroke-dasharray:none;stroke-dashoffset:0"
       id="polygon81"
       points="16.973,6.7383 16.973,6.2578 16.973,6.2578 15.289,6.2578 15.289,8.7773 16.82,8.7773 16.82,8.2969 16.047,8.2969 16.047,7.8164 16.805,7.8164 16.805,7.3359 16.047,7.3359 16.047,6.7383 "
       transform="matrix(1.7341477,0,0,-1.7341477,244.04839,-643.12603)" />
    <polygon
       style="font-style:normal;font-variant:normal;font-weight:normal;font-stretch:normal;letter-spacing:normal;word-spacing:normal;text-anchor:start;fill:#ffffff;fill-opacity:1;stroke:#ffffff;stroke-width:0;stroke-linecap:butt;stroke-linejoin:miter;stroke-miterlimit:10.43299961;stroke-opacity:1;stroke-dasharray:none;stroke-dashoffset:0"
       id="polygon83"
       points="14.996,8.7422 14.023,6.2578 13.312,6.2578 12.418,8.7227 13.207,8.8125 13.758,7.0234 14.348,8.8125 14.996,8.7422 "
       transform="matrix(1.7341477,0,0,-1.7341477,244.04839,-643.12603)" />
    <polygon
       style="font-style:normal;font-variant:normal;font-weight:normal;font-stretch:normal;letter-spacing:normal;word-spacing:normal;text-anchor:start;fill:#ffffff;fill-opacity:1;stroke:#ffffff;stroke-width:0;stroke-linecap:butt;stroke-linejoin:miter;stroke-miterlimit:10.43299961;stroke-opacity:1;stroke-dasharray:none;stroke-dashoffset:0"
       id="polygon85"
       points="11.367,6.2578 11.367,6.2578 12.121,6.2578 12.121,8.7773 11.367,8.7773 "
       transform="matrix(1.7341477,0,0,-1.7341477,244.04839,-643.12603)" />
    <polygon
       style="font-style:normal;font-variant:normal;font-weight:normal;font-stretch:normal;letter-spacing:normal;word-spacing:normal;text-anchor:start;fill:#ffffff;fill-opacity:1;stroke:#ffffff;stroke-width:0;stroke-linecap:butt;stroke-linejoin:miter;stroke-miterlimit:10.43299961;stroke-opacity:1;stroke-dasharray:none;stroke-dashoffset:0"
       id="polygon87"
       points="9.1719,7.6836 9.1719,6.2578 8.5781,6.2578 8.5781,8.7773 9.1055,8.7773 10.199,7.3789 10.199,8.7773 10.793,8.7773 10.793,6.2578 10.793,6.2578 10.312,6.2578 "
       transform="matrix(1.7341477,0,0,-1.7341477,244.04839,-643.12603)" />
    <path
       style="font-style:normal;font-variant:normal;font-weight:normal;font-stretch:normal;letter-spacing:normal;word-spacing:normal;text-anchor:start;fill:#ffffff;fill-opacity:1;stroke:#ffffff;stroke-width:0;stroke-linecap:butt;stroke-linejoin:miter;stroke-miterlimit:10.43299961;stroke-opacity:1;stroke-dasharray:none;stroke-dashoffset:0"
       id="path89"
       d="m 258.00881,-655.94375 0,0.0863 -0.002,0.0831 -0.002,0.0814 -0.004,0.0765 -0.004,0.075 -0.004,0.0716 -0.006,0.0684 -0.004,0.0342 -0.004,0.0327 -0.004,0.0325 -0.004,0.031 -0.004,0.0293 -0.004,0.0293 -0.004,0.0293 -0.004,0.0276 -0.006,0.0276 -0.004,0.0276 -0.006,0.0261 -0.006,0.0245 -0.006,0.0245 -0.009,0.0244 -0.006,0.0227 -0.009,0.0213 -0.009,0.0227 -0.009,0.0191 c -0.26393,0.67123 -0.86024,1.01012 -1.78723,1.01012 -0.75926,0 -1.30181,-0.2313 -1.61951,-0.6908 -0.12883,-0.18411 -0.21004,-0.41382 -0.24437,-0.67775 -0.0128,-0.12862 -0.0262,-0.3731 -0.0262,-0.72503 l 0,-2.35094 1.3066,0 0,2.13428 c 0,0.5344 0.0342,0.87982 0.10269,1.04267 0.0946,0.23789 0.27699,0.35195 0.54092,0.35195 0.34536,0 0.56208,-0.16774 0.65817,-0.5148 0.0472,-0.16136 0.0668,-0.46598 0.0668,-0.91405 l 0,-2.10005 1.1307,0 0,2.40472 z" />
    <path
       style="font-style:normal;font-variant:normal;font-weight:normal;font-stretch:normal;letter-spacing:normal;word-spacing:normal;text-anchor:start;fill:#ffffff;fill-opacity:1;stroke:#ffffff;stroke-width:0;stroke-linecap:butt;stroke-linejoin:miter;stroke-miterlimit:10.43299961;stroke-opacity:1;stroke-dasharray:none;stroke-dashoffset:0"
       d="m 279.40371,-684.70757 0,9.96537 0,4.31832 c 0,0.74619 0.11803,1.71569 0.46505,2.65744 0.29648,0.82603 0.72839,1.59769 1.46159,2.19238 2.0919,1.70902 5.27701,2.05951 8.96882,2.0595 3.41325,0 6.59396,-0.34172 8.57022,-1.8602 0.81294,-0.62239 1.33671,-1.48256 1.66089,-2.39168 0.33239,-0.92054 0.46505,-1.91899 0.46505,-2.72387 l 0,-4.25189 0,-9.96537 -6.90932,0 0,9.96537 0,1.99307 c 0,0.68592 -0.1725,2.17485 -0.9301,2.72387 -0.86022,0.62235 -1.81657,0.66436 -2.98961,0.66436 -1.30012,0 -2.3653,-0.0376 -3.05604,-0.86367 -0.63054,-0.7445 -0.79723,-1.58523 -0.79723,-2.39169 l 0,-2.12594 0,-9.96537 -6.90932,0 z m 1.32871,1.32872 4.18546,0 0,8.63665 0,1.8602 c 0,1.39468 0.47336,2.58387 0.73079,2.98961 0.95474,1.51191 2.61923,1.8602 4.58407,1.8602 1.62433,0 2.96297,-0.1678 3.98614,-1.19584 0.9743,-0.98404 1.19585,-2.67792 1.19585,-3.38823 l 0,-2.12594 0,-8.63665 4.25189,0 0,8.63665 0,4.38476 c 0,0.84071 -0.14701,1.79262 -0.53149,2.591 -0.25745,0.52296 -0.64227,0.97191 -1.12941,1.32871 -1.97136,1.45002 -4.6836,1.59446 -7.83942,1.59446 -3.09554,0 -5.46706,-0.1276 -7.57367,-1.39515 l -0.0664,-0.0664 -0.0664,0 -0.0664,-0.0664 -0.0664,-0.0664 -0.0664,-0.0664 -0.13288,-0.0664 -0.0664,-0.0664 -0.0664,-0.13287 -0.13287,-0.0664 -0.0664,-0.0664 -0.0664,-0.13287 -0.0664,-0.0664 -0.0664,-0.13287 -0.0664,-0.13287 -0.0664,-0.0664 -0.0664,-0.13287 -0.0664,-0.0664 -0.0664,-0.13287 c -0.40574,-0.8814 -0.53149,-1.9002 -0.53149,-2.591 l 0,-4.38476 0,-8.63665 z"
       id="path97" />
    <path
       style="font-style:normal;font-variant:normal;font-weight:normal;font-stretch:normal;letter-spacing:normal;word-spacing:normal;text-anchor:start;fill:#ffffff;fill-opacity:1;stroke:#ffffff;stroke-width:0;stroke-linecap:butt;stroke-linejoin:miter;stroke-miterlimit:10.43299961;stroke-opacity:1;stroke-dasharray:none;stroke-dashoffset:0"
       d="m 316.47487,-685.03974 -0.39862,0.0664 -0.46505,0 -0.39861,0.0664 -0.53149,0.0664 -0.46505,0.0664 -0.53149,0.13287 -0.46505,0.13287 -0.53148,0.13287 -0.53149,0.13287 -0.53148,0.19931 -0.53149,0.19931 -0.53149,0.26574 -0.46505,0.26575 -0.53148,0.26574 -0.46505,0.33218 -0.46505,0.39861 -0.46505,0.39862 -0.46505,0.39861 -0.19931,0.26574 -0.19931,0.26575 -0.19931,0.1993 -0.13287,0.26575 -0.19931,0.26574 -0.1993,0.33218 -0.13287,0.26574 -0.13288,0.33218 -0.1993,0.33218 -0.13287,0.33218 -0.13288,0.33218 -0.0664,0.33218 -0.13287,0.39861 -0.0664,0.33218 -0.0664,0.39861 -0.13288,0.39862 0,0.39861 -0.0664,0.46505 -0.0664,0.46505 0,0.39862 0.66436,0 -0.66436,0.0664 c 0,0.15642 0,0.30371 0,0.46505 0,2.7843 0.74219,4.87366 1.92664,6.44427 2.58232,3.41488 7.22305,4.25189 10.62972,4.25188 6.36217,0 9.30101,-1.46158 9.30101,-1.46158 l 0.0664,-2.7903 0.13287,-2.591 c 0,0 -5.18324,1.92664 -8.23804,1.92664 -3.99484,0 -6.71001,-2.21717 -6.71001,-5.71348 l 0,-0.0664 0,-0.0664 0,-0.0664 0,-0.0664 0,-0.13287 0,-0.0664 0,-0.0664 0,-0.0664 -1.26228,0.0664 c -0.0147,0.21671 0,0.37954 0,0.59792 0,3.00587 1.72261,5.28822 4.38476,6.3114 1.02968,0.39423 2.18715,0.59792 3.45466,0.59792 l 0.26574,0 0.26575,0 0.26574,-0.0664 0.26574,0 0.26575,0 0.26574,-0.0664 0.33218,0 0.26574,-0.0664 0.26574,-0.0664 0.26575,0 0.26574,-0.0664 0.26574,-0.0664 0.26575,-0.0664 0.26574,0 0.26574,-0.0664 0.26575,-0.0664 c 1.49726,-0.35185 2.65743,-0.7308 2.65743,-0.7308 l -0.0664,0.7308 -0.0664,1.8602 c 0,0 -2.19337,1.1294 -7.97229,1.1294 l -0.59792,-0.0664 -0.59792,0 -0.59792,-0.0664 -0.59793,-0.0664 -0.66435,-0.0664 -0.59792,-0.0664 -0.59793,-0.13288 -0.26574,-0.13287 -0.26574,-0.0664 -0.33218,-0.0664 -0.26574,-0.13287 -0.26575,-0.0664 -0.33218,-0.13287 -0.26574,-0.0664 -0.26574,-0.13287 -0.26575,-0.13288 -0.26574,-0.13287 -0.26574,-0.19931 -0.26575,-0.13287 -0.1993,-0.1993 -0.26575,-0.13288 -0.26574,-0.1993 -0.19931,-0.19931 -0.1993,-0.19931 -0.26575,-0.1993 c -1.40276,-1.43534 -2.25881,-3.53743 -2.25881,-6.51071 l 0,-0.0664 0,-0.0664 0,-0.0664 0,-0.0664 0,-0.0664 0,-0.0664 c 0.21017,-6.62445 5.40936,-9.03527 11.29408,-9.03527 3.71307,0 7.10862,0.86366 7.10863,0.86367 l 0.1993,2.59099 c 0,0 -3.06108,-1.19584 -6.3114,-1.19584 -4.89743,0 -7.51555,2.85524 -7.77298,6.71001 l 1.26228,0 c 0.20205,-3.17701 2.15177,-5.3813 6.64358,-5.3813 4.06325,0 7.64011,1.72733 7.64011,1.72733 l -0.39861,-5.51417 c 0,0 -3.98462,-1.1294 -8.43735,-1.1294 l -0.26574,0 -0.33218,0 -0.33218,0 -0.39861,0 z"
       id="path99" />
    <path
       style="font-style:normal;font-variant:normal;font-weight:normal;font-stretch:normal;letter-spacing:normal;word-spacing:normal;text-anchor:start;fill:#ffffff;fill-opacity:1;stroke:#ffffff;stroke-width:0;stroke-linecap:butt;stroke-linejoin:miter;stroke-miterlimit:10.43299961;stroke-opacity:1;stroke-dasharray:none;stroke-dashoffset:0"
       d="m 331.55579,-684.70757 0,9.96537 0,6.97576 0,3.98614 18.46914,0 0,-3.98614 0,-1.99308 -11.22764,0 0,-4.98268 0,-9.96537 -7.2415,0 z m 1.32871,1.32872 4.58407,0 0,8.63665 0,6.3114 11.22765,0 0,0.66436 0,2.65743 -15.81172,0 0,-2.65743 0,-6.97576 0,-8.63665 z"
       id="polygon103" />
    <path
       style="font-style:normal;font-variant:normal;font-weight:normal;font-stretch:normal;letter-spacing:normal;word-spacing:normal;text-anchor:start;fill:#ffffff;fill-opacity:1;stroke:#ffffff;stroke-width:0;stroke-linecap:butt;stroke-linejoin:miter;stroke-miterlimit:10.43299961;stroke-opacity:1;stroke-dasharray:none;stroke-dashoffset:0"
       d="m 354.27682,-684.70757 0,9.96537 0,6.97576 0,3.98614 6.64358,0 0,-3.98614 0,-6.97576 0,-0.99654 0.53148,0.99654 3.58753,6.97576 2.12595,3.98614 3.18892,0 2.12594,-3.98614 3.58753,-6.97576 0.53149,-0.99654 0,0.99654 0,6.97576 0,3.98614 6.64357,0 0,-3.98614 0,-6.97576 0,-9.96537 -7.24149,0 -5.97922,9.96537 -1.26228,2.12594 -1.26228,-2.12594 -5.97922,-9.96537 -7.2415,0 z m 1.32871,1.32872 5.18199,0 5.18199,8.63665 2.79031,4.58407 2.72386,-4.58407 5.24843,-8.63665 5.11555,0 0,8.63665 0,6.97576 0,2.65743 -3.91971,0 0,-2.65743 0,-6.97576 0,-4.18545 -1.06297,0 -2.25882,4.18545 -3.65396,6.97576 -1.32872,2.65743 -1.72733,0 -1.39515,-2.65743 -3.58753,-6.97576 -2.25882,-4.18545 -1.06297,0 0,4.18545 0,6.97576 0,2.65743 -3.98615,0 0,-2.65743 0,-6.97576 0,-8.63665 z"
       id="polygon105" />
    <g
       id="g3316"
       transform="matrix(2.1380019,0,0,2.1386552,-167.41123,-1277.9878)"
       style="fill:#ffffff">
      <path
         id="path3264"
         style="font-size:12px;font-weight:400;font-stretch:normal;fill:#ffffff;stroke:#f0062e;stroke-width:0;stroke-miterlimit:10.43299961;stroke-dashoffset:0"
         d="m 197.2102,282.31813 4.9103,-4.91007 4.90901,4.90901 -1.97469,1.97479 3.2e-4,-1.75204 c 2.1e-4,-1.82356 -1.25144,-3.35296 -2.94231,-3.77821 l 0,0.004 c -1.65517,0.42525 -2.88562,1.90882 -2.92633,3.68762 l -2.2e-4,1.84072 -1.97605,-1.97608" />
      <path
         id="path81"
         style="font-size:12px;font-weight:400;font-stretch:normal;fill:#ffffff;stroke:#f0062e;stroke-width:0;stroke-miterlimit:10.43299961;stroke-dashoffset:0"
         d="m 204.67924,284.67587 -0.42323,0.42247 2.2e-4,-2.69175 c 1e-4,-1.17875 -0.95559,-2.13476 -2.13456,-2.13476 -1.14625,0 -2.08158,0.90378 -2.13285,2.03778 l -0.002,0 -3.2e-4,2.79001 -0.42407,-0.42311 3.2e-4,-2.13669 c 2.1e-4,-1.60721 1.07793,-2.96289 2.55021,-3.38494 l 0,-0.004 c 1.48112,0.41459 2.56694,1.7756 2.56684,3.3892 l -3.2e-4,2.13615" />
      <path
         id="path83"
         style="font-size:12px;font-weight:400;font-stretch:normal;fill:#ffffff;stroke:#f0062e;stroke-width:0;stroke-miterlimit:10.43299961;stroke-dashoffset:0"
         d="m 200.40021,282.30961 0.007,-0.0842 0.0108,-0.0831 0.0147,-0.0821 0.0185,-0.081 0.0222,-0.0789 0.0259,-0.0778 0.0294,-0.0757 0.0327,-0.0735 0.0361,-0.0725 0.0393,-0.0703 0.0425,-0.0682 0.0455,-0.0661 0.0485,-0.0639 0.0513,-0.0608 0.054,-0.0586 0.0566,-0.0565 0.0593,-0.0533 0.0617,-0.0512 0.064,-0.048 0.0663,-0.0458 0.0684,-0.0416 0.0704,-0.0384 0.0725,-0.0362 0.0743,-0.032 0.076,-0.0288 0.0778,-0.0256 0.0793,-0.0224 0.0808,-0.0171 0.0821,-0.0149 0.0834,-0.01 0.0846,-0.006 0.0857,-0.002 c 0.95207,0 1.7238,0.77163 1.7237,1.72337 l -4.3e-4,3.10272 -0.35917,0.35885 3.2e-4,-1.53601 c 0,-0.25877 -0.1313,-0.48685 -0.33103,-0.62114 0.20655,-0.23863 0.33146,-0.54973 0.33156,-0.88982 1.1e-4,-0.75138 -0.60899,-1.36101 -1.36047,-1.35995 -0.75149,0 -1.36069,0.60857 -1.3608,1.35995 0,0.33849 0.12353,0.6481 0.32795,0.88609 -0.20314,0.13376 -0.33711,0.36386 -0.33722,0.62519 l 8.5e-4,1.53676 -0.35991,-0.35949 4.2e-4,-3.20013 0.003,0" />
      <path
         id="path85"
         style="font-size:12px;font-weight:400;font-stretch:normal;fill:#ffffff;stroke:#f0062e;stroke-width:0;stroke-miterlimit:10.43299961;stroke-dashoffset:0"
         d="m 202.74025,283.98843 0.0176,5.4e-4 0.0174,0.001 0.0171,0.002 0.0168,0.003 0.0165,0.004 0.0162,0.005 0.0159,0.005 0.0156,0.006 0.0151,0.007 0.0147,0.008 0.0143,0.008 0.0138,0.009 0.0133,0.01 0.0129,0.0102 0.0125,0.0108 0.0118,0.0114 0.0113,0.0119 0.0108,0.0125 0.0101,0.0129 0.009,0.0134 0.009,0.014 0.008,0.0143 0.008,0.0148 0.007,0.0151 0.006,0.0156 0.005,0.016 0.005,0.0162 0.004,0.0166 0.003,0.0168 0.002,0.0171 0.001,0.0175 4.3e-4,0.0176 -1.1e-4,1.93931 -0.96059,0.95302 -0.96188,-0.95281 2.2e-4,-1.9393 c 0.001,-0.18982 0.15507,-0.34372 0.34489,-0.34372 l 1e-4,-0.4034 c -0.22168,-0.18054 -0.36332,-0.45573 -0.36332,-0.76395 1e-4,-0.54462 0.44112,-0.98479 0.9851,-0.98479 0.54398,-10e-4 0.985,0.44017 0.98489,0.98479 0,0.31131 -0.14473,0.58905 -0.37057,0.7696 l 0,0.39764" />
    </g>
  </g>
</svg>
