<?xml version="1.0" encoding="UTF-8" standalone="no"?>
<!-- Created with Inkscape (http://www.inkscape.org/) -->

<svg
   xmlns:dc="http://purl.org/dc/elements/1.1/"
   xmlns:cc="http://creativecommons.org/ns#"
   xmlns:rdf="http://www.w3.org/1999/02/22-rdf-syntax-ns#"
   xmlns:svg="http://www.w3.org/2000/svg"
   xmlns="http://www.w3.org/2000/svg"
   xmlns:sodipodi="http://sodipodi.sourceforge.net/DTD/sodipodi-0.dtd"
   xmlns:inkscape="http://www.inkscape.org/namespaces/inkscape"
   width="147.47023"
   height="92.174286"
   id="svg2640"
   sodipodi:version="0.32"
   inkscape:version="0.47 r22583"
   version="1.0"
   sodipodi:docname="uclm.svg"
   inkscape:output_extension="org.inkscape.output.svg.inkscape">
  <defs
     id="defs2642">
    <inkscape:perspective
       sodipodi:type="inkscape:persp3d"
       inkscape:vp_x="0 : 526.18109 : 1"
       inkscape:vp_y="0 : 1000 : 0"
       inkscape:vp_z="744.09448 : 526.18109 : 1"
       inkscape:persp3d-origin="372.04724 : 350.78739 : 1"
       id="perspective2648" />
    <inkscape:perspective
       id="perspective3224"
       inkscape:persp3d-origin="245.175 : 47.037501 : 1"
       inkscape:vp_z="490.35001 : 70.556252 : 1"
       inkscape:vp_y="0 : 1000 : 0"
       inkscape:vp_x="0 : 70.556252 : 1"
       sodipodi:type="inkscape:persp3d" />
  </defs>
  <sodipodi:namedview
     id="base"
     pagecolor="#ffffff"
     bordercolor="#666666"
     borderopacity="1.0"
     inkscape:pageopacity="0.0"
     inkscape:pageshadow="2"
     inkscape:zoom="5.960525"
     inkscape:cx="96.719667"
     inkscape:cy="46.087143"
     inkscape:document-units="mm"
     inkscape:current-layer="layer1"
     showgrid="false"
     units="mm"
     inkscape:window-width="1256"
     inkscape:window-height="895"
     inkscape:window-x="0"
     inkscape:window-y="0"
     showborder="false"
     inkscape:showpageshadow="true"
     inkscape:window-maximized="0" />
  <metadata
     id="metadata2645">
    <rdf:RDF>
      <cc:Work
         rdf:about="">
        <dc:format>image/svg+xml</dc:format>
        <dc:type
           rdf:resource="http://purl.org/dc/dcmitype/StillImage" />
      </cc:Work>
    </rdf:RDF>
  </metadata>
  <g
     inkscape:label="Capa 1"
     inkscape:groupmode="layer"
     id="layer1"
     transform="translate(-244.98998,736.92607)">
    <g
       id="g3430"
       transform="matrix(2.1259446,0,0,2.1259446,-197.45917,-1315.3516)">
      <polygon
         transform="matrix(0.8157069,0,0,-0.8157069,207.67595,316.20089)"
         points="85.582,0.9375 85.582,54.09 0.54297,54.09 0.54297,0.9375 0.54297,0.9375 "
         id="polygon9"
         style="font-style:normal;font-variant:normal;font-weight:normal;font-stretch:normal;letter-spacing:normal;word-spacing:normal;text-anchor:start;fill:#981325;fill-opacity:1;fill-rule:nonzero;stroke:#b80040;stroke-width:0;stroke-linecap:butt;stroke-linejoin:miter;stroke-miterlimit:10.43299960999999954;stroke-opacity:1;stroke-dasharray:none;stroke-dashoffset:0" />
      <path
         id="polygon67"
         transform="translate(208.11885,272.0793)"
         d="m 21.4375,36.96875 -0.8125,2.0625 0.46875,0 0.1875,-0.5 0.65625,0 0.15625,0.5 0.65625,0 -0.78125,-2.0625 -0.53125,0 z m 0.1875,0.59375 0.21875,0.625 -0.4375,0 0.21875,-0.625 z"
         style="font-style:normal;font-variant:normal;font-weight:normal;font-stretch:normal;letter-spacing:normal;word-spacing:normal;text-anchor:start;fill:#ffffff;fill-opacity:1;stroke:#ffffff;stroke-width:0;stroke-linecap:butt;stroke-linejoin:miter;stroke-miterlimit:10.43299961;stroke-opacity:1;stroke-dasharray:none;stroke-dashoffset:0" />
      <path
         id="polygon13"
         d="m 271.85185,309.04288 -0.83611,2.05919 0.4897,0 0.18316,-0.50964 0.65291,0 0.16323,0.50964 0.65219,0 -0.79471,-2.05919 -0.51037,0 z m 0.18391,0.59085 0.20384,0.65292 -0.44909,0 0.24525,-0.65292 z"
         style="font-style:normal;font-variant:normal;font-weight:normal;font-stretch:normal;letter-spacing:normal;word-spacing:normal;text-anchor:start;fill:#ffffff;fill-opacity:1;stroke:#ffffff;stroke-width:0;stroke-linecap:butt;stroke-linejoin:miter;stroke-miterlimit:10.43299961;stroke-opacity:1;stroke-dasharray:none;stroke-dashoffset:0" />
      <polygon
         transform="matrix(0.8157069,0,0,-0.8157069,207.67595,316.20089)"
         points="75.688,7.4102 75.688,6.2578 74.934,6.2578 74.934,8.7773 75.688,8.7773 75.688,7.8906 76.492,7.8906 76.492,8.7773 77.246,8.7773 77.246,6.2578 77.246,6.2578 76.492,6.2578 76.492,7.4102 "
         id="polygon15"
         style="font-style:normal;font-variant:normal;font-weight:normal;font-stretch:normal;letter-spacing:normal;word-spacing:normal;text-anchor:start;fill:#ffffff;fill-opacity:1;stroke:#ffffff;stroke-width:0;stroke-linecap:butt;stroke-linejoin:miter;stroke-miterlimit:10.43299961;stroke-opacity:1;stroke-dasharray:none;stroke-dashoffset:0" />
      <path
         d="m 268.46838,311.04153 -0.0322,0.0107 -0.0307,0.01 -0.0322,0.009 -0.0314,0.008 -0.0322,0.008 -0.0314,0.008 -0.0322,0.007 -0.0322,0.006 -0.0322,0.005 -0.033,0.005 -0.0314,0.004 -0.033,0.003 -0.033,0.002 -0.0329,0.002 -0.0337,7.8e-4 -0.0322,7.6e-4 c -0.35713,0 -0.64989,-0.0989 -0.88056,-0.29044 -0.2253,-0.19695 -0.3372,-0.45521 -0.3372,-0.77403 0,-0.30576 0.1119,-0.55791 0.33184,-0.75792 0.22303,-0.20079 0.50658,-0.30272 0.85067,-0.30272 0.18469,0 0.3663,0.0345 0.55101,0.10193 l -0.15252,0.36941 c -0.11189,-0.0284 -0.20768,-0.0414 -0.29044,-0.0414 -0.19773,0 -0.35635,0.0575 -0.47513,0.17164 -0.1142,0.11495 -0.17475,0.2713 -0.17475,0.46212 0,0.18162 0.0544,0.33185 0.16249,0.44295 0.11723,0.12722 0.28354,0.18776 0.4966,0.18776 0.1019,0 0.20765,-0.0153 0.31955,-0.0444 l 0.1142,0.38549 z"
         id="path17"
         style="font-style:normal;font-variant:normal;font-weight:normal;font-stretch:normal;letter-spacing:normal;word-spacing:normal;text-anchor:start;fill:#ffffff;fill-opacity:1;stroke:#ffffff;stroke-width:0;stroke-linecap:butt;stroke-linejoin:miter;stroke-miterlimit:10.43299961;stroke-opacity:1;stroke-dasharray:none;stroke-dashoffset:0" />
      <polygon
         transform="matrix(0.8157069,0,0,-0.8157069,207.67595,316.20089)"
         points="69.781,8.7773 70.309,8.7773 71.402,7.3789 71.402,8.7773 71.992,8.7773 71.992,6.2578 71.992,6.2578 71.516,6.2578 70.375,7.6836 70.375,6.2578 69.781,6.2578 "
         id="polygon19"
         style="font-style:normal;font-variant:normal;font-weight:normal;font-stretch:normal;letter-spacing:normal;word-spacing:normal;text-anchor:start;fill:#ffffff;fill-opacity:1;stroke:#ffffff;stroke-width:0;stroke-linecap:butt;stroke-linejoin:miter;stroke-miterlimit:10.43299961;stroke-opacity:1;stroke-dasharray:none;stroke-dashoffset:0" />
      <path
         id="polygon23"
         transform="translate(208.11885,272.0793)"
         d="M 54.84375,36.96875 54,39.03125 l 0.5,0 0.1875,-0.5 0.65625,0 0.15625,0.5 0.65625,0 -0.78125,-2.0625 -0.53125,0 z m 0.1875,0.59375 0.21875,0.625 -0.4375,0 0.21875,-0.625 z"
         style="font-style:normal;font-variant:normal;font-weight:normal;font-stretch:normal;letter-spacing:normal;word-spacing:normal;text-anchor:start;fill:#ffffff;fill-opacity:1;stroke:#ffffff;stroke-width:0;stroke-linecap:butt;stroke-linejoin:miter;stroke-miterlimit:10.43299961;stroke-opacity:1;stroke-dasharray:none;stroke-dashoffset:0" />
      <path
         d="m 261.80185,311.09593 -0.58551,0 0,-1.03534 c 0,-0.0766 0.003,-0.21383 0.009,-0.4077 -0.0284,0.12108 -0.0728,0.25442 -0.12414,0.4077 l -0.35942,1.03534 -0.25903,0 -0.36938,-1.03534 c -0.0383,-0.11189 -0.0789,-0.24831 -0.12416,-0.41154 0.007,0.14331 0.0123,0.28049 0.0123,0.41154 l 0,1.03534 -0.48356,0 0,-2.05536 0.72958,0 0.43069,1.25912 0.41689,-1.25912 0.70658,0 0,2.05536 z"
         id="path25"
         style="font-style:normal;font-variant:normal;font-weight:normal;font-stretch:normal;letter-spacing:normal;word-spacing:normal;text-anchor:start;fill:#ffffff;fill-opacity:1;stroke:#ffffff;stroke-width:0;stroke-linecap:butt;stroke-linejoin:miter;stroke-miterlimit:10.43299961;stroke-opacity:1;stroke-dasharray:none;stroke-dashoffset:0" />
      <path
         id="polygon29"
         transform="translate(208.11885,272.0793)"
         d="m 49.28125,36.96875 -0.8125,2.0625 0.46875,0 0.1875,-0.5 0.65625,0 0.15625,0.5 0.65625,0 -0.78125,-2.0625 -0.53125,0 z m 0.1875,0.59375 0.21875,0.625 -0.4375,0 0.21875,-0.625 z"
         style="font-style:normal;font-variant:normal;font-weight:normal;font-stretch:normal;letter-spacing:normal;word-spacing:normal;text-anchor:start;fill:#ffffff;fill-opacity:1;stroke:#ffffff;stroke-width:0;stroke-linecap:butt;stroke-linejoin:miter;stroke-miterlimit:10.43299961;stroke-opacity:1;stroke-dasharray:none;stroke-dashoffset:0" />
      <polygon
         transform="matrix(0.8157069,0,0,-0.8157069,207.67595,316.20089)"
         points="58.047,8.7773 58.805,8.7773 58.805,6.7383 59.727,6.7383 59.727,6.2578 59.727,6.2578 58.047,6.2578 "
         id="polygon31"
         style="font-style:normal;font-variant:normal;font-weight:normal;font-stretch:normal;letter-spacing:normal;word-spacing:normal;text-anchor:start;fill:#ffffff;fill-opacity:1;stroke:#ffffff;stroke-width:0;stroke-linecap:butt;stroke-linejoin:miter;stroke-miterlimit:10.43299961;stroke-opacity:1;stroke-dasharray:none;stroke-dashoffset:0" />
      <path
         d="m 254.60424,309.83759 -0.002,0.0145 -0.002,0.0146 -0.002,0.0146 -0.004,0.0146 -0.003,0.0146 -0.003,0.0138 -0.004,0.0138 -0.004,0.0138 -0.004,0.013 -0.004,0.0138 -0.005,0.0131 -0.004,0.013 -0.006,0.0122 -0.005,0.013 -0.005,0.0123 -0.006,0.0115 c -0.0736,0.16323 -0.18164,0.24216 -0.32801,0.24216 -0.0605,0 -0.15019,-0.0284 -0.26744,-0.0889 -0.0866,-0.0444 -0.15022,-0.0636 -0.19161,-0.0636 -0.0889,0 -0.15249,0.0506 -0.19082,0.15251 l -0.16861,0 c 0.0215,-0.10193 0.0445,-0.17781 0.0697,-0.22608 0.0667,-0.14637 0.17244,-0.21994 0.30884,-0.21994 0.0544,0 0.13105,0.0261 0.22991,0.0797 0.0981,0.0483 0.17168,0.0736 0.22224,0.0736 0.105,0 0.1755,-0.0544 0.21381,-0.16551 l 0.16554,0 z"
         id="path33"
         style="font-style:normal;font-variant:normal;font-weight:normal;font-stretch:normal;letter-spacing:normal;word-spacing:normal;text-anchor:start;fill:#ffffff;fill-opacity:1;stroke:#ffffff;stroke-width:0;stroke-linecap:butt;stroke-linejoin:miter;stroke-miterlimit:10.43299961;stroke-opacity:1;stroke-dasharray:none;stroke-dashoffset:0" />
      <path
         id="polygon37"
         transform="translate(208.11885,272.0793)"
         d="m 43.8125,36.96875 -0.84375,2.0625 0.46875,0 0.21875,-0.5 0.625,0 0.15625,0.5 0.65625,0 -0.78125,-2.0625 -0.5,0 z m 0.15625,0.59375 0.21875,0.625 -0.4375,0 0.21875,-0.625 z"
         style="font-style:normal;font-variant:normal;font-weight:normal;font-stretch:normal;letter-spacing:normal;word-spacing:normal;text-anchor:start;fill:#ffffff;fill-opacity:1;stroke:#ffffff;stroke-width:0;stroke-linecap:butt;stroke-linejoin:miter;stroke-miterlimit:10.43299961;stroke-opacity:1;stroke-dasharray:none;stroke-dashoffset:0" />
      <polygon
         transform="matrix(0.8157069,0,0,-0.8157069,207.67595,316.20089)"
         points="51.32,8.7773 52.074,8.7773 52.074,6.7383 53,6.7383 53,6.2578 53,6.2578 51.32,6.2578 "
         id="polygon39"
         style="font-style:normal;font-variant:normal;font-weight:normal;font-stretch:normal;letter-spacing:normal;word-spacing:normal;text-anchor:start;fill:#ffffff;fill-opacity:1;stroke:#ffffff;stroke-width:0;stroke-linecap:butt;stroke-linejoin:miter;stroke-miterlimit:10.43299961;stroke-opacity:1;stroke-dasharray:none;stroke-dashoffset:0" />
      <polygon
         transform="matrix(0.8157069,0,0,-0.8157069,207.67595,316.20089)"
         points="49.336,8.7773 50.09,8.7773 50.09,6.7383 51.016,6.7383 51.016,6.2578 51.016,6.2578 49.336,6.2578 "
         id="polygon41"
         style="font-style:normal;font-variant:normal;font-weight:normal;font-stretch:normal;letter-spacing:normal;word-spacing:normal;text-anchor:start;fill:#ffffff;fill-opacity:1;stroke:#ffffff;stroke-width:0;stroke-linecap:butt;stroke-linejoin:miter;stroke-miterlimit:10.43299961;stroke-opacity:1;stroke-dasharray:none;stroke-dashoffset:0" />
      <polygon
         transform="matrix(0.8157069,0,0,-0.8157069,207.67595,316.20089)"
         points="48.758,6.2578 48.758,8.7773 48.004,8.7773 48.004,6.2578 48.004,6.2578 "
         id="polygon43"
         style="font-style:normal;font-variant:normal;font-weight:normal;font-stretch:normal;letter-spacing:normal;word-spacing:normal;text-anchor:start;fill:#ffffff;fill-opacity:1;stroke:#ffffff;stroke-width:0;stroke-linecap:butt;stroke-linejoin:miter;stroke-miterlimit:10.43299961;stroke-opacity:1;stroke-dasharray:none;stroke-dashoffset:0" />
      <polygon
         transform="matrix(0.8157069,0,0,-0.8157069,207.67595,316.20089)"
         points="47.703,8.7773 47.703,8.2969 47.703,8.2969 46.969,8.2969 46.969,6.2578 46.215,6.2578 46.215,8.2969 45.492,8.2969 45.492,8.7773 "
         id="polygon45"
         style="font-style:normal;font-variant:normal;font-weight:normal;font-stretch:normal;letter-spacing:normal;word-spacing:normal;text-anchor:start;fill:#ffffff;fill-opacity:1;stroke:#ffffff;stroke-width:0;stroke-linecap:butt;stroke-linejoin:miter;stroke-miterlimit:10.43299961;stroke-opacity:1;stroke-dasharray:none;stroke-dashoffset:0" />
      <path
         d="m 244.56421,310.52269 -7.4e-4,0.0169 0,0.0169 -0.002,0.0161 -0.002,0.0161 -0.002,0.0161 -0.002,0.0161 -0.002,0.0161 -0.004,0.0153 -0.004,0.0153 -0.004,0.0146 -0.005,0.0153 -0.005,0.0146 -0.005,0.0145 -0.006,0.0138 -0.006,0.0145 -0.007,0.0138 -0.006,0.0138 -0.008,0.0131 -0.008,0.013 -0.008,0.013 -0.008,0.013 -0.01,0.013 -0.01,0.0123 -0.009,0.0122 -0.0107,0.0115 -0.0107,0.0123 -0.0115,0.0115 -0.0123,0.0115 -0.0123,0.0107 -0.0123,0.0115 -0.013,0.0107 -0.0138,0.01 c -0.14636,0.11188 -0.33795,0.16935 -0.57322,0.16935 -0.24217,0 -0.45827,-0.0636 -0.64682,-0.19159 l 0.18471,-0.34101 c 0.11802,0.0989 0.24141,0.14714 0.37322,0.14714 0.0728,0 0.13333,-0.0192 0.18391,-0.0544 0.0513,-0.0383 0.0766,-0.0858 0.0766,-0.1433 0,-0.0575 -0.0215,-0.11494 -0.0728,-0.17549 -0.0322,-0.0383 -0.10882,-0.1111 -0.22607,-0.21688 -0.0705,-0.0636 -0.16246,-0.14636 -0.27741,-0.2483 -0.10194,-0.11111 -0.15328,-0.2322 -0.15328,-0.36325 0,-0.16246 0.0667,-0.29274 0.20079,-0.39159 0.13105,-0.0958 0.30654,-0.1464 0.52571,-0.1464 0.18852,0 0.36937,0.0475 0.54182,0.1364 l -0.16554,0.32494 c -0.10498,-0.0505 -0.20076,-0.0759 -0.2774,-0.0759 -0.1303,0 -0.19391,0.0414 -0.19391,0.12722 0,0.0352 0.0123,0.0667 0.0383,0.10193 0.0284,0.0322 0.0851,0.0858 0.17551,0.16246 0.10422,0.0889 0.20921,0.18774 0.30806,0.29352 0.13106,0.14025 0.19771,0.28662 0.19771,0.44601 z"
         id="path47"
         style="font-style:normal;font-variant:normal;font-weight:normal;font-stretch:normal;letter-spacing:normal;word-spacing:normal;text-anchor:start;fill:#ffffff;fill-opacity:1;stroke:#ffffff;stroke-width:0;stroke-linecap:butt;stroke-linejoin:miter;stroke-miterlimit:10.43299961;stroke-opacity:1;stroke-dasharray:none;stroke-dashoffset:0" />
      <path
         id="polygon51"
         transform="translate(208.11885,272.0793)"
         d="m 33.59375,36.96875 -0.8125,2.0625 0.46875,0 0.21875,-0.5 0.625,0 0.15625,0.5 0.65625,0 -0.78125,-2.0625 -0.53125,0 z m 0.1875,0.59375 0.21875,0.625 -0.4375,0 0.21875,-0.625 z"
         style="font-style:normal;font-variant:normal;font-weight:normal;font-stretch:normal;letter-spacing:normal;word-spacing:normal;text-anchor:start;fill:#ffffff;fill-opacity:1;stroke:#ffffff;stroke-width:0;stroke-linecap:butt;stroke-linejoin:miter;stroke-miterlimit:10.43299961;stroke-opacity:1;stroke-dasharray:none;stroke-dashoffset:0" />
      <path
         d="m 240.6834,311.04153 -0.0314,0.0107 -0.0322,0.01 -0.0314,0.009 -0.0322,0.008 -0.0314,0.008 -0.0315,0.008 -0.0322,0.007 -0.0322,0.006 -0.0322,0.005 -0.0314,0.005 -0.033,0.004 -0.0314,0.003 -0.033,0.002 -0.0322,0.002 -0.033,7.8e-4 -0.0322,7.6e-4 c -0.36019,0 -0.65369,-0.0989 -0.88284,-0.29044 -0.22609,-0.19695 -0.33795,-0.45521 -0.33795,-0.77403 0,-0.30576 0.11186,-0.55791 0.33489,-0.75792 0.21994,-0.20079 0.50272,-0.30272 0.84759,-0.30272 0.1847,0 0.36555,0.0345 0.551,0.10193 l -0.15325,0.36941 c -0.11114,-0.0284 -0.20695,-0.0414 -0.2897,-0.0414 -0.19696,0 -0.35713,0.0575 -0.47439,0.17164 -0.11494,0.11495 -0.17548,0.2713 -0.17548,0.46212 0,0.18162 0.0537,0.33185 0.16248,0.44295 0.11801,0.12722 0.28355,0.18776 0.49733,0.18776 0.10195,0 0.20695,-0.0153 0.31805,-0.0444 l 0.11496,0.38549 z"
         id="path53"
         style="font-style:normal;font-variant:normal;font-weight:normal;font-stretch:normal;letter-spacing:normal;word-spacing:normal;text-anchor:start;fill:#ffffff;fill-opacity:1;stroke:#ffffff;stroke-width:0;stroke-linecap:butt;stroke-linejoin:miter;stroke-miterlimit:10.43299961;stroke-opacity:1;stroke-dasharray:none;stroke-dashoffset:0" />
      <polygon
         transform="matrix(0.8157069,0,0,-0.8157069,207.67595,316.20089)"
         points="36.898,8.7773 36.898,8.2969 36.121,8.2969 36.121,7.8164 36.883,7.8164 36.883,7.3359 36.121,7.3359 36.121,6.7383 37.051,6.7383 37.051,6.2578 37.051,6.2578 35.367,6.2578 35.367,8.7773 "
         id="polygon55"
         style="font-style:normal;font-variant:normal;font-weight:normal;font-stretch:normal;letter-spacing:normal;word-spacing:normal;text-anchor:start;fill:#ffffff;fill-opacity:1;stroke:#ffffff;stroke-width:0;stroke-linecap:butt;stroke-linejoin:miter;stroke-miterlimit:10.43299961;stroke-opacity:1;stroke-dasharray:none;stroke-dashoffset:0" />
      <path
         id="path59"
         transform="translate(208.11885,272.0793)"
         d="m 26.09375,36.96875 0,2.0625 0.6875,0 c 0.34409,0 0.61476,-0.09077 0.8125,-0.21875 L 27.625,38.78125 27.65625,38.75 l 0.03125,0 0.03125,-0.03125 0,-0.03125 0.03125,0 0.03125,-0.03125 0,-0.03125 0.03125,-0.03125 0.03125,0 0,-0.03125 0.03125,-0.03125 0,-0.03125 0.03125,-0.03125 0,-0.03125 0.03125,0 0,-0.03125 0,-0.03125 0.03125,-0.03125 0,-0.03125 0,-0.03125 L 28,38.25 l 0,-0.03125 0,-0.03125 0,-0.03125 0,-0.03125 0.03125,-0.03125 0,-0.0625 0,-0.03125 0,-0.03125 0,-0.03125 c 0,-0.25213 -0.07621,-0.459448 -0.21875,-0.625 C 27.66842,37.14316 27.47776,37.044432 27.21875,37 27.1237,36.98083 26.97377,36.968751 26.75,36.96875 l -0.65625,0 z m 0.625,0.375 0.09375,0 c 0.15022,0 0.26096,0.03932 0.34375,0.09375 l 0.03125,0 0,0.03125 0.03125,0 0,0.03125 0.03125,0 0,0.03125 0.03125,0 0,0.03125 0.03125,0.03125 0,0.03125 0.03125,0.03125 0,0.03125 0,0.03125 0,0.03125 0.03125,0 0,0.03125 0,0.03125 0,0.03125 0,0.03125 0,0.03125 0,0.03125 c 0,0.24216 -0.0413,0.444461 -0.15625,0.5625 -0.0858,0.08887 -0.22078,0.125 -0.40625,0.125 l -0.09375,0 0,-1.28125 z"
         style="font-style:normal;font-variant:normal;font-weight:normal;font-stretch:normal;letter-spacing:normal;word-spacing:normal;text-anchor:start;fill:#ffffff;fill-opacity:1;stroke:#ffffff;stroke-width:0;stroke-linecap:butt;stroke-linejoin:miter;stroke-miterlimit:10.43299961;stroke-opacity:1;stroke-dasharray:none;stroke-dashoffset:0" />
      <path
         id="path63"
         transform="translate(208.11885,272.0793)"
         d="m 23,36.96875 0,2.0625 0.6875,0 c 0.34408,0 0.58661,-0.09077 0.78125,-0.21875 l 0.03125,0 0.03125,-0.03125 0.03125,-0.03125 0.03125,0 0.03125,-0.03125 0,-0.03125 0.03125,0 0.03125,-0.03125 0,-0.03125 0.03125,-0.03125 0.03125,0 0,-0.03125 0.03125,-0.03125 0,-0.03125 0.03125,-0.03125 0,-0.03125 0.03125,0 0,-0.03125 0,-0.03125 0.03125,-0.03125 0,-0.03125 0,-0.03125 0.03125,-0.03125 0,-0.03125 0,-0.03125 0,-0.03125 0,-0.03125 0,-0.03125 0.03125,-0.0625 0,-0.03125 0,-0.03125 0,-0.03125 c 0,-0.25213 -0.07469,-0.459448 -0.21875,-0.625 C 24.57543,37.14316 24.38329,37.044432 24.125,37 c -0.09579,-0.01917 -0.27927,-0.03125 -0.5,-0.03125 l -0.625,0 z m 0.59375,0.375 0.125,0 c 0.15021,0 0.26097,0.03932 0.34375,0.09375 l 0.03125,0 0,0.03125 0.03125,0 0,0.03125 0.03125,0 0,0.03125 0.03125,0 0,0.03125 0.03125,0.03125 0,0.03125 0,0.03125 0.03125,0 0,0.03125 0,0.03125 0,0.03125 0.03125,0.03125 0,0.03125 0,0.03125 0,0.03125 0,0.03125 0,0.03125 c 0,0.24216 -0.04208,0.444461 -0.15625,0.5625 -0.0866,0.08887 -0.249761,0.125 -0.4375,0.125 l -0.09375,0 0,-1.28125 z"
         style="font-style:normal;font-variant:normal;font-weight:normal;font-stretch:normal;letter-spacing:normal;word-spacing:normal;text-anchor:start;fill:#ffffff;fill-opacity:1;stroke:#ffffff;stroke-width:0;stroke-linecap:butt;stroke-linejoin:miter;stroke-miterlimit:10.43299961;stroke-opacity:1;stroke-dasharray:none;stroke-dashoffset:0" />
      <path
         id="path71"
         transform="translate(208.11885,272.0793)"
         d="m 18.59375,36.96875 0,2.0625 0.6875,0 c 0.34104,0 0.6186,-0.09077 0.8125,-0.21875 l 0.03125,0 0.03125,-0.03125 0,-0.03125 0.03125,0 0.03125,-0.03125 0.03125,-0.03125 0.03125,-0.03125 0.03125,-0.03125 0,-0.03125 0.03125,0 0,-0.03125 0.03125,-0.03125 0.03125,-0.03125 0,-0.03125 0,-0.03125 0.03125,0 0,-0.03125 0.03125,-0.03125 0,-0.03125 0,-0.03125 0.03125,-0.03125 0,-0.03125 0,-0.03125 0,-0.03125 0.03125,-0.03125 0,-0.03125 0,-0.03125 0,-0.0625 0,-0.03125 0,-0.03125 0,-0.03125 c 0,-0.25213 -0.07468,-0.459448 -0.21875,-0.625 C 20.16919,37.14316 19.97625,37.044432 19.71875,37 19.62373,36.98083 19.46917,36.968751 19.25,36.96875 l -0.65625,0 z m 0.625,0.375 0.09375,0 c 0.14941,0 0.261,0.03932 0.34375,0.09375 l 0.03125,0 0.03125,0.03125 0,0.03125 0.03125,0 0,0.03125 0.03125,0 0,0.03125 0.03125,0 0,0.03125 0,0.03125 0.03125,0 0,0.03125 0,0.03125 0,0.03125 0.03125,0 0,0.03125 0,0.03125 0,0.03125 0,0.03125 0,0.03125 0,0.03125 0,0.03125 c 0,0.24216 -0.04205,0.444461 -0.15625,0.5625 -0.08659,0.08887 -0.218481,0.125 -0.40625,0.125 l -0.09375,0 0,-1.28125 z"
         style="font-style:normal;font-variant:normal;font-weight:normal;font-stretch:normal;letter-spacing:normal;word-spacing:normal;text-anchor:start;fill:#ffffff;fill-opacity:1;stroke:#ffffff;stroke-width:0;stroke-linecap:butt;stroke-linejoin:miter;stroke-miterlimit:10.43299961;stroke-opacity:1;stroke-dasharray:none;stroke-dashoffset:0" />
      <polygon
         transform="matrix(0.8157069,0,0,-0.8157069,207.67595,316.20089)"
         points="22.766,6.2578 22.766,8.7773 22.012,8.7773 22.012,6.2578 22.012,6.2578 "
         id="polygon73"
         style="font-style:normal;font-variant:normal;font-weight:normal;font-stretch:normal;letter-spacing:normal;word-spacing:normal;text-anchor:start;fill:#ffffff;fill-opacity:1;stroke:#ffffff;stroke-width:0;stroke-linecap:butt;stroke-linejoin:miter;stroke-miterlimit:10.43299961;stroke-opacity:1;stroke-dasharray:none;stroke-dashoffset:0" />
      <path
         d="m 225.23905,310.52269 0,0.0169 -7.6e-4,0.0169 -7.8e-4,0.0161 -0.002,0.0161 -0.002,0.0161 -0.002,0.0161 -0.003,0.0161 -0.003,0.0153 -0.004,0.0153 -0.004,0.0146 -0.005,0.0153 -0.005,0.0146 -0.005,0.0145 -0.006,0.0138 -0.006,0.0145 -0.007,0.0138 -0.007,0.0138 -0.008,0.0131 -0.008,0.013 -0.008,0.013 -0.009,0.013 -0.008,0.013 -0.01,0.0123 -0.01,0.0122 -0.0107,0.0115 -0.0115,0.0123 -0.0115,0.0115 -0.0107,0.0115 -0.0123,0.0107 -0.013,0.0115 -0.0138,0.0107 -0.013,0.01 c -0.14329,0.11188 -0.33411,0.16935 -0.57093,0.16935 -0.24141,0 -0.45828,-0.0636 -0.6491,-0.19159 l 0.18776,-0.34101 c 0.11802,0.0989 0.24218,0.14714 0.37243,0.14714 0.0736,0 0.13414,-0.0192 0.18548,-0.0544 0.0506,-0.0383 0.0759,-0.0858 0.0759,-0.1433 0,-0.0575 -0.0222,-0.11494 -0.0728,-0.17549 -0.0314,-0.0383 -0.10806,-0.1111 -0.22684,-0.21688 -0.0697,-0.0636 -0.16554,-0.14636 -0.27742,-0.2483 -0.10192,-0.11111 -0.15251,-0.2322 -0.15251,-0.36325 0,-0.16246 0.0674,-0.29274 0.20079,-0.39159 0.13104,-0.0958 0.30579,-0.1464 0.52343,-0.1464 0.1908,0 0.37243,0.0475 0.54488,0.1364 l -0.16707,0.32494 c -0.10731,-0.0505 -0.20001,-0.0759 -0.2759,-0.0759 -0.13181,0 -0.19541,0.0414 -0.19541,0.12722 0,0.0352 0.013,0.0667 0.0383,0.10193 0.0253,0.0322 0.0866,0.0858 0.1755,0.16246 0.10499,0.0889 0.2069,0.18774 0.30884,0.29352 0.13104,0.14025 0.19465,0.28662 0.19465,0.44601 z"
         id="path75"
         style="font-style:normal;font-variant:normal;font-weight:normal;font-stretch:normal;letter-spacing:normal;word-spacing:normal;text-anchor:start;fill:#ffffff;fill-opacity:1;stroke:#ffffff;stroke-width:0;stroke-linecap:butt;stroke-linejoin:miter;stroke-miterlimit:10.43299961;stroke-opacity:1;stroke-dasharray:none;stroke-dashoffset:0" />
      <path
         id="path79"
         transform="translate(208.11885,272.0793)"
         d="m 13.75,36.96875 0,2.0625 0.625,0 0,-0.8125 0.15625,0 L 14.875,39.0625 15.53125,39 l -0.5,-0.875 c 0.25136,-0.12722 0.375,-0.31342 0.375,-0.5625 0,-0.2069 -0.0655,-0.363749 -0.21875,-0.46875 -0.0797,-0.0544 -0.18836,-0.108912 -0.3125,-0.125 -0.06668,-0.01 -0.16383,10e-7 -0.3125,0 l -0.8125,0 z m 0.625,0.34375 0.125,0 c 0.11804,0 0.20249,0.03415 0.25,0.0625 l 0.03125,0 0,0.03125 0.03125,0.03125 0,0.03125 0,0.03125 0.03125,0 0,0.03125 0,0.03125 0,0.03125 c 0,0.0958 -0.0401,0.168159 -0.09375,0.21875 -0.05134,0.05135 -0.1228,0.0625 -0.25,0.0625 l -0.125,0 0,-0.5625 z"
         style="font-style:normal;font-variant:normal;font-weight:normal;font-stretch:normal;letter-spacing:normal;word-spacing:normal;text-anchor:start;fill:#ffffff;fill-opacity:1;stroke:#ffffff;stroke-width:0;stroke-linecap:butt;stroke-linejoin:miter;stroke-miterlimit:10.43299961;stroke-opacity:1;stroke-dasharray:none;stroke-dashoffset:0" />
      <polygon
         transform="matrix(0.8157069,0,0,-0.8157069,207.67595,316.20089)"
         points="16.82,8.7773 16.82,8.2969 16.047,8.2969 16.047,7.8164 16.805,7.8164 16.805,7.3359 16.047,7.3359 16.047,6.7383 16.973,6.7383 16.973,6.2578 16.973,6.2578 15.289,6.2578 15.289,8.7773 "
         id="polygon81"
         style="font-style:normal;font-variant:normal;font-weight:normal;font-stretch:normal;letter-spacing:normal;word-spacing:normal;text-anchor:start;fill:#ffffff;fill-opacity:1;stroke:#ffffff;stroke-width:0;stroke-linecap:butt;stroke-linejoin:miter;stroke-miterlimit:10.43299961;stroke-opacity:1;stroke-dasharray:none;stroke-dashoffset:0" />
      <polygon
         transform="matrix(0.8157069,0,0,-0.8157069,207.67595,316.20089)"
         points="14.996,8.7422 14.023,6.2578 13.312,6.2578 12.418,8.7227 13.207,8.8125 13.758,7.0234 14.348,8.8125 14.996,8.7422 "
         id="polygon83"
         style="font-style:normal;font-variant:normal;font-weight:normal;font-stretch:normal;letter-spacing:normal;word-spacing:normal;text-anchor:start;fill:#ffffff;fill-opacity:1;stroke:#ffffff;stroke-width:0;stroke-linecap:butt;stroke-linejoin:miter;stroke-miterlimit:10.43299961;stroke-opacity:1;stroke-dasharray:none;stroke-dashoffset:0" />
      <polygon
         transform="matrix(0.8157069,0,0,-0.8157069,207.67595,316.20089)"
         points="12.121,6.2578 12.121,8.7773 11.367,8.7773 11.367,6.2578 11.367,6.2578 "
         id="polygon85"
         style="font-style:normal;font-variant:normal;font-weight:normal;font-stretch:normal;letter-spacing:normal;word-spacing:normal;text-anchor:start;fill:#ffffff;fill-opacity:1;stroke:#ffffff;stroke-width:0;stroke-linecap:butt;stroke-linejoin:miter;stroke-miterlimit:10.43299961;stroke-opacity:1;stroke-dasharray:none;stroke-dashoffset:0" />
      <polygon
         transform="matrix(0.8157069,0,0,-0.8157069,207.67595,316.20089)"
         points="8.5781,8.7773 9.1055,8.7773 10.199,7.3789 10.199,8.7773 10.793,8.7773 10.793,6.2578 10.793,6.2578 10.312,6.2578 9.1719,7.6836 9.1719,6.2578 8.5781,6.2578 "
         id="polygon87"
         style="font-style:normal;font-variant:normal;font-weight:normal;font-stretch:normal;letter-spacing:normal;word-spacing:normal;text-anchor:start;fill:#ffffff;fill-opacity:1;stroke:#ffffff;stroke-width:0;stroke-linecap:butt;stroke-linejoin:miter;stroke-miterlimit:10.43299961;stroke-opacity:1;stroke-dasharray:none;stroke-dashoffset:0" />
      <path
         d="m 214.24264,310.1717 0,0.0406 -7.8e-4,0.0391 -7.6e-4,0.0383 -0.002,0.036 -0.002,0.0353 -0.002,0.0337 -0.003,0.0322 -0.002,0.0161 -0.002,0.0154 -0.002,0.0153 -0.002,0.0146 -0.002,0.0138 -0.002,0.0138 -0.002,0.0138 -0.002,0.013 -0.003,0.013 -0.002,0.013 -0.003,0.0123 -0.003,0.0115 -0.003,0.0115 -0.004,0.0115 -0.003,0.0107 -0.004,0.01 -0.004,0.0107 -0.004,0.009 c -0.12415,0.31573 -0.40464,0.47514 -0.84068,0.47514 -0.35714,0 -0.61234,-0.1088 -0.76178,-0.32494 -0.0606,-0.0866 -0.0988,-0.19465 -0.11495,-0.3188 -0.006,-0.0605 -0.0123,-0.1755 -0.0123,-0.34104 l 0,-1.10583 0.6146,0 0,1.00392 c 0,0.25137 0.0161,0.41385 0.0483,0.49045 0.0445,0.1119 0.13029,0.16555 0.25444,0.16555 0.16245,0 0.26439,-0.0789 0.30959,-0.24215 0.0222,-0.0759 0.0314,-0.21919 0.0314,-0.42995 l 0,-0.98782 0.53186,0 0,1.13113 z"
         id="path89"
         style="font-style:normal;font-variant:normal;font-weight:normal;font-stretch:normal;letter-spacing:normal;word-spacing:normal;text-anchor:start;fill:#ffffff;fill-opacity:1;stroke:#ffffff;stroke-width:0;stroke-linecap:butt;stroke-linejoin:miter;stroke-miterlimit:10.43299961;stroke-opacity:1;stroke-dasharray:none;stroke-dashoffset:0" />
      <path
         id="path97"
         transform="translate(208.11885,272.0793)"
         d="m 16.1875,24.5625 0,4.6875 0,2.03125 c 0,0.35099 0.05552,0.807021 0.21875,1.25 0.13946,0.38855 0.34262,0.75152 0.6875,1.03125 0.98399,0.80389 2.482199,0.968751 4.21875,0.96875 1.60552,0 3.10166,-0.160742 4.03125,-0.875 0.38239,-0.29276 0.62876,-0.697369 0.78125,-1.125 0.15635,-0.433 0.21875,-0.902651 0.21875,-1.28125 l 0,-2 0,-4.6875 -3.25,0 0,4.6875 0,0.9375 c 0,0.32264 -0.08114,1.023001 -0.4375,1.28125 -0.40463,0.29274 -0.85448,0.3125 -1.40625,0.3125 -0.61155,0 -1.112589,-0.01771 -1.4375,-0.40625 -0.29659,-0.3502 -0.375,-0.745661 -0.375,-1.125 l 0,-1 0,-4.6875 -3.25,0 z m 0.625,0.625 1.96875,0 0,4.0625 0,0.875 c 0,0.65603 0.22266,1.2154 0.34375,1.40625 0.44909,0.71117 1.23203,0.874999 2.15625,0.875 0.76405,0 1.39372,-0.07893 1.875,-0.5625 0.45829,-0.46287 0.5625,-1.259639 0.5625,-1.59375 l 0,-1 0,-4.0625 2,0 0,4.0625 0,2.0625 c 0,0.39545 -0.06915,0.843211 -0.25,1.21875 -0.1211,0.24599 -0.302111,0.457168 -0.53125,0.625 -0.92729,0.68206 -2.20307,0.750002 -3.6875,0.75 -1.45608,0 -2.57159,-0.06002 -3.5625,-0.65625 l -0.03125,-0.03125 -0.03125,0 L 17.59375,33.1875 17.5625,33.15625 17.53125,33.125 17.46875,33.09375 17.4375,33.0625 17.40625,33 17.34375,32.96875 17.3125,32.9375 17.28125,32.875 17.25,32.84375 17.21875,32.78125 17.1875,32.71875 17.15625,32.6875 17.125,32.625 17.09375,32.59375 17.0625,32.53125 c -0.19085,-0.41459 -0.25,-0.89381 -0.25,-1.21875 l 0,-2.0625 0,-4.0625 z"
         style="font-style:normal;font-variant:normal;font-weight:normal;font-stretch:normal;letter-spacing:normal;word-spacing:normal;text-anchor:start;fill:#ffffff;fill-opacity:1;stroke:#ffffff;stroke-width:0;stroke-linecap:butt;stroke-linejoin:miter;stroke-miterlimit:10.43299961;stroke-opacity:1;stroke-dasharray:none;stroke-dashoffset:0" />
      <path
         id="path99"
         transform="translate(208.11885,272.0793)"
         d="m 33.625,24.40625 -0.1875,0.03125 -0.21875,0 -0.1875,0.03125 -0.25,0.03125 -0.21875,0.03125 -0.25,0.0625 -0.21875,0.0625 -0.25,0.0625 -0.25,0.0625 -0.25,0.09375 -0.25,0.09375 -0.25,0.125 -0.21875,0.125 -0.25,0.125 L 30.15625,25.5 29.9375,25.6875 29.71875,25.875 29.5,26.0625 l -0.09375,0.125 -0.09375,0.125 -0.09375,0.09375 -0.0625,0.125 -0.09375,0.125 -0.09375,0.15625 -0.0625,0.125 -0.0625,0.15625 L 28.75,27.25 28.6875,27.40625 28.625,27.5625 28.59375,27.71875 28.53125,27.90625 28.5,28.0625 28.46875,28.25 l -0.0625,0.1875 0,0.1875 -0.03125,0.21875 -0.03125,0.21875 0,0.1875 0.3125,0 -0.3125,0.03125 c 0,0.07358 0,0.14286 0,0.21875 0,1.30968 0.349109,2.292471 0.90625,3.03125 1.21467,1.60629 3.39757,2.000002 5,2 2.99263,0 4.375001,-0.687498 4.375,-0.6875 l 0.03125,-1.3125 0.0625,-1.21875 c 0,0 -2.438089,0.906252 -3.875,0.90625 -1.87909,0 -3.15625,-1.04291 -3.15625,-2.6875 l 0,-0.03125 0,-0.03125 0,-0.03125 0,-0.03125 0,-0.0625 0,-0.03125 0,-0.03125 0,-0.03125 -0.59375,0.03125 c -0.0069,0.10194 -1e-6,0.17853 0,0.28125 0,1.4139 0.810279,2.487471 2.0625,2.96875 0.48434,0.18544 1.02879,0.28125 1.625,0.28125 l 0.125,0 0.125,0 0.125,-0.03125 0.125,0 0.125,0 0.125,-0.03125 0.15625,0 0.125,-0.03125 0.125,-0.03125 0.125,0 0.125,-0.03125 0.125,-0.03125 0.125,-0.03125 0.125,0 0.125,-0.03125 0.125,-0.03125 c 0.70428,-0.1655 1.25,-0.343752 1.25,-0.34375 L 38.03125,32.53125 38,33.40625 c 0,0 -1.03172,0.53125 -3.75,0.53125 l -0.28125,-0.03125 -0.28125,0 L 33.40625,33.875 33.125,33.84375 32.8125,33.8125 32.53125,33.78125 32.25,33.71875 32.125,33.65625 32,33.625 l -0.15625,-0.03125 -0.125,-0.0625 -0.125,-0.03125 -0.15625,-0.0625 -0.125,-0.03125 -0.125,-0.0625 -0.125,-0.0625 -0.125,-0.0625 -0.125,-0.09375 -0.125,-0.0625 -0.09375,-0.09375 -0.125,-0.0625 -0.125,-0.09375 L 30.25,32.71875 30.15625,32.625 l -0.125,-0.09375 c -0.65983,-0.67515 -1.0625,-1.663931 -1.0625,-3.0625 l 0,-0.03125 0,-0.03125 0,-0.03125 0,-0.03125 0,-0.03125 0,-0.03125 c 0.09886,-3.116 2.544449,-4.25 5.3125,-4.25 1.74655,0 3.343748,0.406249 3.34375,0.40625 l 0.09375,1.21875 c 0,0 -1.439871,-0.5625 -2.96875,-0.5625 -2.30365,0 -3.535159,1.343049 -3.65625,3.15625 l 0.59375,0 c 0.09504,-1.4944 1.01215,-2.53125 3.125,-2.53125 1.91127,0 3.59375,0.812499 3.59375,0.8125 l -0.1875,-2.59375 c 0,0 -1.87428,-0.53125 -3.96875,-0.53125 l -0.125,0 -0.15625,0 -0.15625,0 -0.1875,0 z"
         style="font-style:normal;font-variant:normal;font-weight:normal;font-stretch:normal;letter-spacing:normal;word-spacing:normal;text-anchor:start;fill:#ffffff;fill-opacity:1;stroke:#ffffff;stroke-width:0;stroke-linecap:butt;stroke-linejoin:miter;stroke-miterlimit:10.43299961;stroke-opacity:1;stroke-dasharray:none;stroke-dashoffset:0" />
      <path
         id="polygon103"
         transform="translate(208.11885,272.0793)"
         d="m 40.71875,24.5625 0,4.6875 0,3.28125 0,1.875 8.6875,0 0,-1.875 0,-0.9375 -5.28125,0 0,-2.34375 0,-4.6875 -3.40625,0 z m 0.625,0.625 2.15625,0 0,4.0625 0,2.96875 5.28125,0 0,0.3125 0,1.25 -7.4375,0 0,-1.25 0,-3.28125 0,-4.0625 z"
         style="font-style:normal;font-variant:normal;font-weight:normal;font-stretch:normal;letter-spacing:normal;word-spacing:normal;text-anchor:start;fill:#ffffff;fill-opacity:1;stroke:#ffffff;stroke-width:0;stroke-linecap:butt;stroke-linejoin:miter;stroke-miterlimit:10.43299961;stroke-opacity:1;stroke-dasharray:none;stroke-dashoffset:0" />
      <path
         transform="translate(208.11885,272.0793)"
         id="polygon105"
         d="m 51.40625,24.5625 0,4.6875 0,3.28125 0,1.875 3.125,0 0,-1.875 0,-3.28125 0,-0.46875 0.25,0.46875 1.6875,3.28125 1,1.875 1.5,0 1,-1.875 1.6875,-3.28125 0.25,-0.46875 0,0.46875 0,3.28125 0,1.875 3.125,0 0,-1.875 0,-3.28125 0,-4.6875 -3.40625,0 -2.8125,4.6875 -0.59375,1 -0.59375,-1 -2.8125,-4.6875 -3.40625,0 z m 0.625,0.625 2.4375,0 2.4375,4.0625 1.3125,2.15625 L 59.5,29.25 l 2.46875,-4.0625 2.40625,0 0,4.0625 0,3.28125 0,1.25 -1.84375,0 0,-1.25 0,-3.28125 0,-1.96875 -0.5,0 -1.0625,1.96875 -1.71875,3.28125 -0.625,1.25 -0.8125,0 -0.65625,-1.25 -1.6875,-3.28125 -1.0625,-1.96875 -0.5,0 0,1.96875 0,3.28125 0,1.25 -1.875,0 0,-1.25 0,-3.28125 0,-4.0625 z"
         style="font-style:normal;font-variant:normal;font-weight:normal;font-stretch:normal;letter-spacing:normal;word-spacing:normal;text-anchor:start;fill:#ffffff;fill-opacity:1;stroke:#ffffff;stroke-width:0;stroke-linecap:butt;stroke-linejoin:miter;stroke-miterlimit:10.43299961;stroke-opacity:1;stroke-dasharray:none;stroke-dashoffset:0" />
      <g
         style="fill:#ffffff"
         transform="matrix(1.0056715,0,0,1.0059788,14.133922,17.575173)"
         id="g3316">
        <path
           d="m 197.2102,282.31813 4.9103,-4.91007 4.90901,4.90901 -1.97469,1.97479 3.2e-4,-1.75204 c 2.1e-4,-1.82356 -1.25144,-3.35296 -2.94231,-3.77821 l 0,0.004 c -1.65517,0.42525 -2.88562,1.90882 -2.92633,3.68762 l -2.2e-4,1.84072 -1.97605,-1.97608"
           style="font-size:12px;font-weight:400;font-stretch:normal;fill:#ffffff;stroke:#f0062e;stroke-width:0;stroke-miterlimit:10.43299961;stroke-dashoffset:0"
           id="path3264" />
        <path
           d="m 204.67924,284.67587 -0.42323,0.42247 2.2e-4,-2.69175 c 1e-4,-1.17875 -0.95559,-2.13476 -2.13456,-2.13476 -1.14625,0 -2.08158,0.90378 -2.13285,2.03778 l -0.002,0 -3.2e-4,2.79001 -0.42407,-0.42311 3.2e-4,-2.13669 c 2.1e-4,-1.60721 1.07793,-2.96289 2.55021,-3.38494 l 0,-0.004 c 1.48112,0.41459 2.56694,1.7756 2.56684,3.3892 l -3.2e-4,2.13615"
           style="font-size:12px;font-weight:400;font-stretch:normal;fill:#ffffff;stroke:#f0062e;stroke-width:0;stroke-miterlimit:10.43299961;stroke-dashoffset:0"
           id="path81" />
        <path
           d="m 200.40021,282.30961 0.007,-0.0842 0.0108,-0.0831 0.0147,-0.0821 0.0185,-0.081 0.0222,-0.0789 0.0259,-0.0778 0.0294,-0.0757 0.0327,-0.0735 0.0361,-0.0725 0.0393,-0.0703 0.0425,-0.0682 0.0455,-0.0661 0.0485,-0.0639 0.0513,-0.0608 0.054,-0.0586 0.0566,-0.0565 0.0593,-0.0533 0.0617,-0.0512 0.064,-0.048 0.0663,-0.0458 0.0684,-0.0416 0.0704,-0.0384 0.0725,-0.0362 0.0743,-0.032 0.076,-0.0288 0.0778,-0.0256 0.0793,-0.0224 0.0808,-0.0171 0.0821,-0.0149 0.0834,-0.01 0.0846,-0.006 0.0857,-0.002 c 0.95207,0 1.7238,0.77163 1.7237,1.72337 l -4.3e-4,3.10272 -0.35917,0.35885 3.2e-4,-1.53601 c 0,-0.25877 -0.1313,-0.48685 -0.33103,-0.62114 0.20655,-0.23863 0.33146,-0.54973 0.33156,-0.88982 1.1e-4,-0.75138 -0.60899,-1.36101 -1.36047,-1.35995 -0.75149,0 -1.36069,0.60857 -1.3608,1.35995 0,0.33849 0.12353,0.6481 0.32795,0.88609 -0.20314,0.13376 -0.33711,0.36386 -0.33722,0.62519 l 8.5e-4,1.53676 -0.35991,-0.35949 4.2e-4,-3.20013 0.003,0"
           style="font-size:12px;font-weight:400;font-stretch:normal;fill:#ffffff;stroke:#f0062e;stroke-width:0;stroke-miterlimit:10.43299961;stroke-dashoffset:0"
           id="path83" />
        <path
           d="m 202.74025,283.98843 0.0176,5.4e-4 0.0174,0.001 0.0171,0.002 0.0168,0.003 0.0165,0.004 0.0162,0.005 0.0159,0.005 0.0156,0.006 0.0151,0.007 0.0147,0.008 0.0143,0.008 0.0138,0.009 0.0133,0.01 0.0129,0.0102 0.0125,0.0108 0.0118,0.0114 0.0113,0.0119 0.0108,0.0125 0.0101,0.0129 0.009,0.0134 0.009,0.014 0.008,0.0143 0.008,0.0148 0.007,0.0151 0.006,0.0156 0.005,0.016 0.005,0.0162 0.004,0.0166 0.003,0.0168 0.002,0.0171 0.001,0.0175 4.3e-4,0.0176 -1.1e-4,1.93931 -0.96059,0.95302 -0.96188,-0.95281 2.2e-4,-1.9393 c 0.001,-0.18982 0.15507,-0.34372 0.34489,-0.34372 l 1e-4,-0.4034 c -0.22168,-0.18054 -0.36332,-0.45573 -0.36332,-0.76395 1e-4,-0.54462 0.44112,-0.98479 0.9851,-0.98479 0.54398,-10e-4 0.985,0.44017 0.98489,0.98479 0,0.31131 -0.14473,0.58905 -0.37057,0.7696 l 0,0.39764"
           style="font-size:12px;font-weight:400;font-stretch:normal;fill:#ffffff;stroke:#f0062e;stroke-width:0;stroke-miterlimit:10.43299961;stroke-dashoffset:0"
           id="path85" />
      </g>
    </g>
  </g>
</svg>
